<svg width="0" height="0" class="hidden">
  <symbol fill="none" xmlns="http://www.w3.org/2000/svg" viewBox="0 0 31 24" id="checkmark">
    <g clip-path="url(#clip0)">
      <path d="M28.414 1.655C26.483-.552 23.172-.552 21.24 1.38L11.034 11.586 8.829 9.38c-1.931-1.93-5.242-1.93-7.173 0H1.38c-1.93 1.931-1.93 5.242 0 7.173l6.07 6.069C8.551 23.724 9.93 24 11.033 24c1.38 0 2.483-.552 3.587-1.38L28.414 8.828c1.93-1.93 1.93-5.24 0-7.172z" fill="#0D0E0F"></path>
    </g>
    <defs>
      <clipPath id="clip0">
        <path fill="#fff" d="M0 0h30.069v24H0z"></path >
      </clipPath>
    </defs>
  </symbol>
  <symbol fill="none" xmlns="http://www.w3.org/2000/svg" viewBox="0 0 24 24" id="f">
    <path d="M24 22.692c0 .72-.589 1.308-1.308 1.308h-6.147v-9.286h3.139l.458-3.597h-3.597V8.828c0-1.046.261-1.765 1.766-1.765h1.896v-3.27c-.327-.065-1.439-.13-2.812-.13-2.746 0-4.643 1.7-4.643 4.773v2.681H9.613v3.597h3.139V24H1.308C.588 24 0 23.411 0 22.692V1.308C0 .588.589 0 1.308 0h21.384C23.412 0 24 .589 24 1.308v21.384z" fill="#B3B3B3"></path>
  </symbol>
  <symbol fill="none" xmlns="http://www.w3.org/2000/svg" viewBox="0 0 68 68" id="feat-1">
    <path d="M34 2C16.431 2 2 16.431 2 34c0 17.569 14.431 32 32 32 17.569 0 32-14.431 32-32C66 16.431 51.569 2 34 2zm0 61.49C17.686 63.49 4.51 50.314 4.51 34S17.686 4.51 34 4.51 63.49 17.686 63.49 34 50.314 63.49 34 63.49z" fill="#000"></path>
    <path d="M34 50.627c-10.98 0-17.569-9.725-17.569-9.725l-2.196 1.569C23.02 53.765 34 53.45 34 53.45s10.98.627 19.765-10.98l-2.196-1.569S44.98 50.627 34 50.627zM23.333 37.451c7.53-3.451 8.785-7.843 8.785-10.04 0-2.509-1.569-5.333-4.393-5.333-3.137 0-4.392 1.57-4.392 1.57s-1.255-1.57-4.392-1.57c-2.823 0-4.392 3.138-4.392 5.334 0 2.196 1.255 6.588 8.784 10.039zm0-10.667c1.569-2.51 5.961-2.823 6.275.314 0 4.392-6.275 7.53-6.275 7.53s-6.274-3.138-6.274-7.53c.313-3.137 4.706-2.823 6.274-.314zm21.334 10.667c7.53-3.451 8.784-7.843 8.784-9.726 0-2.51-1.569-5.333-4.392-5.333-3.137 0-4.392 1.569-4.392 1.569s-1.255-1.569-4.392-1.569c-2.824 0-4.393 3.137-4.393 5.334 0 1.882 1.255 6.274 8.785 9.725zm0-10.667c1.568-2.51 5.96-2.823 6.274.314 0 4.392-6.274 7.53-6.274 7.53s-6.275-3.138-6.275-7.53c.314-3.137 4.706-2.823 6.275-.314z" fill="#000"></path>
  </symbol>
  <symbol fill="none" xmlns="http://www.w3.org/2000/svg" viewBox="0 0 68 69" id="feat-2">
    <path d="M62.03 19.665c.69-.69 1.38-1.38 1.725-2.07 2.415-3.105 2.07-4.485-.345-6.555-2.415-2.07-6.21 1.035-6.21 1.035l-.69.69c-3.795-3.45-8.625-6.21-14.145-7.59C40.295 2.07 37.19 0 33.74 0c-3.795 0-6.9 2.415-8.97 5.52-4.485 1.38-8.625 3.795-12.075 6.9-.69-.345-2.07-1.725-3.795-2.07-2.415-.345-4.83 1.38-5.175 3.795 0 1.38 1.38 3.45 3.105 5.52C3.725 24.495 2 30.015 2 36.225 2 53.82 16.49 68.31 34.43 68.31c6.21 0 12.42-1.725 17.25-4.83l-1.035-2.415c-4.485-11.385-3.45-18.63-3.105-22.08 1.035-3.795 4.83-8.97 6.9-11.73 1.38-1.725 3.45-3.45 5.52-5.52 2.76 4.14 4.14 8.97 4.14 14.49 0 7.935-3.45 15.18-8.625 20.7l2.07 1.725c5.865-5.865 9.315-13.8 9.315-22.425 0-6.21-1.725-11.73-4.83-16.56zM33.74 2.76c4.485 0 7.935 4.14 7.935 9.315s-3.45 9.315-7.935 9.315c-4.485 0-7.935-3.795-7.935-9.315s3.45-9.315 7.935-9.315zm0 21.39c5.865 0 10.695-5.52 10.695-12.075 0-1.38-.345-2.415-.69-3.795 4.14 1.38 7.59 3.45 10.695 6.21-2.76 2.415-6.9 5.52-8.97 6.9-3.105 2.415-8.28 4.83-12.42 4.83-4.14 0-6.21-1.725-9.315-3.105-2.76-1.38-7.245-6.555-9.315-8.625 2.76-2.415 5.865-4.14 8.97-5.52 0 1.035-.345 2.07-.345 3.105 0 6.9 4.83 12.075 10.695 12.075zM4.76 36.225c0-5.175 1.38-10.005 3.795-14.49L9.59 22.77s8.625 10.005 10.35 12.42c1.725 2.415-.345 4.14-1.725 10.35-1.035 4.83-1.035 11.385-1.035 14.49C9.59 54.51 4.76 45.885 4.76 36.225zm53.475-16.56c-1.38 1.38-6.21 5.52-10.35 12.075s-3.45 11.73-3.105 15.525c.345 3.795 1.38 7.245 1.725 8.625.345 1.035 1.725 4.83 2.07 5.865-4.14 2.07-8.97 3.45-13.8 3.45-5.52 0-10.35-1.38-14.835-3.795 0-11.73.69-13.455 1.035-15.18 0-1.725 1.035-5.175 2.07-7.935.69-2.415-.345-4.485-1.38-5.52C20.63 31.74 10.625 19.665 8.9 17.25c-2.07-2.415-2.415-3.45-.69-4.14 1.725-1.035 6.21 4.485 8.28 6.9 1.725 2.415 9.66 8.97 16.905 8.625 7.245-.345 12.42-4.14 14.49-5.52 1.725-1.38 10.695-8.625 12.075-9.66 1.38-1.035 3.105 0 2.76 1.035-.345 1.035-3.105 3.795-4.485 5.175z" fill="#000"></path>
  </symbol>
  <symbol fill="none" xmlns="http://www.w3.org/2000/svg" viewBox="0 0 68 68" id="feat-3">
    <path d="M51.937 15.45c-6.027 0-13.776 4.305-13.489 13.201 0 0-11.766-3.73-15.21 8.61 0 0-2.01-4.305-4.592-6.314-2.87-2.008-6.314-7.174-6.601-9.757.287-1.435.574-1.435 1.148-1.722.287 0 .287 2.296 2.87 2.583 2.296-.287 2.87-.861 3.73-2.01l2.584-2.87s2.583-3.443.287-5.165c-2.01-2.01-5.74-5.74-10.332-4.88C9.749 7.702 7.74 9.71 7.74 9.71l-3.444 3.157S2 15.163 2 19.755c0 4.018.861 10.619.861 10.619l1.148 6.887c.287 1.722 2.583 11.767 8.036 17.22 3.444 4.018 5.453 5.74 7.175 6.027 2.87 0 4.305-1.722 6.6-1.722 2.297 0 4.593 1.722 9.471 1.722 4.88 0 15.785-2.87 20.377-16.933C59.973 41.853 66 38.696 66 29.225c0-9.47-8.323-13.775-14.063-13.775zm2.01 26.403C50.788 54.481 40.743 57.925 35.864 58.5c-4.592 0-7.174-1.722-10.618-1.722-2.01 0-4.88 1.722-5.74 1.722-.861 0-3.157-2.009-6.027-5.166-2.87-3.157-4.018-6.027-5.166-8.323-1.148-2.296-3.157-11.48-3.157-11.48s-.861-9.183-.861-13.201c0-3.731 1.722-6.027 1.722-6.027l4.592-4.018c2.583-2.01 5.74-.574 5.74-.574s3.157 2.009 4.305 3.157c1.435 1.148 0 2.296 0 2.296s-3.157 4.018-4.305 4.305c-1.435.287-1.722-3.157-1.722-3.157-1.435.574-3.731 1.148-4.592 3.73-.861 3.158 3.73 9.758 7.175 12.915 3.157 3.157 5.166 8.323 5.166 8.323l2.583-.86s-.287-6.028 4.879-9.184c5.74-3.157 10.905 1.148 10.905 1.148-1.722-14.35 10.906-14.637 11.767-14.637.861 0 10.906.86 11.767 10.905-.574 11.48-10.332 13.202-10.332 13.202z" fill="#000"></path>
  </symbol>
  <symbol fill="none" xmlns="http://www.w3.org/2000/svg" viewBox="0 0 24 24" id="in">
    <path d="M21.123 0H2.877C1.307 0 0 1.243 0 2.812v18.376C0 22.758 1.308 24 2.877 24h18.246C22.693 24 24 22.758 24 21.188V2.812C24 1.242 22.692 0 21.123 0zm-3.859 3.728c0-.393.327-.72.72-.72h2.288c.393 0 .72.327.72.72V5.95c0 .392-.327.72-.72.72H18.05a.726.726 0 01-.72-.72l-.065-2.223zM12.033 7.39c2.55 0 4.643 2.027 4.643 4.577s-2.093 4.578-4.643 4.578-4.643-2.027-4.643-4.578c0-2.485 2.092-4.577 4.643-4.577zm9.678 13.602c0 .392-.327.72-.72.72H3.009a.726.726 0 01-.72-.72V9.744h2.944c-.393.588-.524 1.635-.524 2.289 0 3.989 3.27 7.259 7.325 7.259 4.054 0 7.324-3.27 7.324-7.26 0-.653-.065-1.7-.589-2.288h3.009l-.066 11.248z" fill="#B3B3B3"></path>
  </symbol>
  <symbol fill="#fff" xmlns="http://www.w3.org/2000/svg" viewBox="0 0 52 52" id="main-1">
    <path d="M15.94 11.627c0 .616 1.232 1.232 3.08 1.232 1.85 0 3.082-.616 3.082-1.232 0-.617-1.233-1.233-3.081-1.233-1.54 0-3.081.308-3.081 1.233z" fill="#fff"></path>
    <path d="M49.214 23.026a5.523 5.523 0 00-5.546-5.546H15.324s-7.395.308-10.784-5.545C4.85 7.62 8.238 4.54 12.55 4.54h12.325c4.62 0 8.01 3.698 8.01 8.01v1.541h1.54V12.86c0-5.547-4.313-9.86-9.859-9.86H12.86C7.313 3 3 7.313 3 12.859V27.34c0 5.545 4.313 9.858 9.859 9.858h2.156v-1.54h-2.464c-4.622 0-8.01-3.697-8.01-8.01V14.706c.924 1.233 4.005 4.314 10.474 4.314h28.653c2.157 0 3.697 1.54 3.697 3.697v2.465c0 2.156-1.54 3.697-3.697 3.697H23.95a5.523 5.523 0 00-5.545 5.545v8.319a5.523 5.523 0 005.545 5.545h19.718a5.523 5.523 0 005.546-5.545V23.025zM47.365 43.36c0 2.157-1.54 3.697-3.697 3.697H23.642c-2.157 0-3.697-1.54-3.697-3.697v-8.935c0-2.156 1.54-3.697 3.697-3.697h5.854v5.238h1.54v-5.238h9.859v5.238h1.54v-5.238h1.233c1.54 0 3.08-.616 4.005-1.54V43.36h-.308z" fill="#fff"></path>
  </symbol>
  <symbol fill="#fff" xmlns="http://www.w3.org/2000/svg" viewBox="0 0 52 52" id="main-2">
    <path d="M8.48 31.036c0 .616.309 1.233.309 1.849 0 2.465.308 6.47.308 6.47h1.54s0-6.47-.924-9.86c-.924-3.696-1.232-10.474.924-15.404l-1.54-.616s-1.849 3.697-1.849 9.55c0 3.698.308 5.239.616 6.779-1.232-.924-4.621-4.005-4.313-10.475.616-7.394 7.086-14.172 7.086-14.172s11.4 10.783 1.233 22.798l1.232.925s4.621-5.238 4.621-11.092c0-5.853-2.464-10.783-7.086-14.788 0 0-8.01 7.702-8.626 16.945-.308 8.627 6.161 11.707 6.161 11.707l.309-.616z" fill="#fff"></path>
    <path d="M24.501 23.026c-11.4 3.389-10.783 14.48-10.475 16.945-4.005 4.005-5.854 7.702-5.854 7.702l1.233.616C21.112 28.88 39.29 32.577 39.29 32.577v-1.54c-11.092-1.233-18.794 3.08-24.031 7.394-.309-4.006 1.54-13.556 13.247-14.48 13.556-.309 20.026 7.701 20.026 7.701-7.086 11.4-15.096 12.94-20.025 13.556-5.238.925-11.708-2.772-11.708-2.772l-.616 1.232s5.546 3.697 12.632 3.08C44.219 44.9 50.073 31.345 50.073 31.345c-1.54-3.08-12.94-11.399-25.572-8.318z" fill="#fff"></path>
  </symbol>
  <symbol fill="#fff" xmlns="http://www.w3.org/2000/svg" viewBox="0 0 52 52" id="main-3">
    <path d="M8.685 21.095L11.43 18.9h.274c.823 0 1.372-.55 1.372-1.373 0-.549-.274-.823-.549-1.098v-5.763h-1.372v5.764c-.549.274-.823.548-.823 1.097v.275l-2.745 2.195 1.098 1.098z" fill="#fff"></path>
    <path d="M50.403 35.916v-8.783c0-2.744-1.098-3.842-1.098-3.842s-2.745-3.568-4.391-5.764c-1.647-2.195-3.843-2.195-3.843-2.195H31.74v-1.373c0-1.92-1.373-3.293-3.294-3.293h-7.96C18.567 7.92 15.273 6 11.705 6 5.666 6 1 10.94 1 16.978c0 2.47.823 4.666 2.196 6.587v12.077c0 1.92 1.372 3.293 3.293 3.293h1.372v.275c0 3.293 2.745 6.038 6.039 6.038 3.293 0 6.038-2.745 6.038-6.038v-.275H33.66v.275c0 3.293 2.744 6.038 6.038 6.038 3.293 0 6.038-2.745 6.038-6.038v-.275h.549c4.666.275 4.117-3.019 4.117-3.019zM49.03 26.31v.823H38.327c-.55 0-1.098-.549-1.098-1.097v-4.392c0-.549.549-1.098 1.098-1.098h7.136c.823.824 1.646 1.922 2.195 2.745 1.373 1.647 1.373 3.019 1.373 3.019zM11.704 7.647c5.215 0 9.606 4.117 9.606 9.606s-4.391 9.331-9.606 9.331-9.332-4.39-9.332-9.606c0-5.214 4.117-9.331 9.332-9.331zm1.921 36.228c-2.47 0-4.391-1.92-4.391-4.39 0-2.471 1.921-4.392 4.391-4.392 2.47 0 4.392 1.921 4.392 4.391 0 2.47-1.922 4.391-4.392 4.391zm5.49-6.312c-.824-2.196-3.02-4.117-5.49-4.117s-4.666 1.647-5.49 4.117h-1.92c-.824 0-1.647-.824-1.647-1.647V24.938c1.921 1.646 4.391 2.744 7.136 2.744 6.038 0 10.704-4.94 10.704-10.704 0-1.646-.55-3.293-1.098-4.665h7.136c.823 0 1.647.823 1.647 1.646v21.957c0 .824-.824 1.647-1.647 1.647h-9.332zm20.31 6.312c-2.47 0-4.392-1.92-4.392-4.39 0-2.471 1.921-4.392 4.391-4.392 2.47 0 4.392 1.921 4.392 4.391 0 2.47-1.922 4.391-4.392 4.391zm6.86-6.038h-1.097c-.823-2.47-3.019-4.117-5.49-4.117-2.744 0-4.94 1.647-5.488 4.117h-2.745c.549-.549.823-1.098.823-1.92V16.428h8.509c2.47 0 3.568 1.647 3.568 1.647s-.275.55.274 1.098h-6.313c-1.372 0-2.195 1.098-2.195 2.196v4.391c0 1.372 1.098 2.196 2.196 2.196h10.978v7.136c-.274 3.019-3.02 2.744-3.02 2.744z" fill="#fff"></path>
  </symbol>

  <symbol fill="none" xmlns="http://www.w3.org/2000/svg" viewBox="0 0 24 24" id="tv">
    <g clip-path="url(#clip0)">
      <path d="M23.346 2.42c-.98.588-2.027.98-3.139 1.242a4.838 4.838 0 00-3.597-1.57c-2.746 0-4.904 2.29-4.904 5.036 0 .392.065.785.13 1.177C7.716 8.044 4.12 6.016 1.7 2.943a5.466 5.466 0 00-.654 2.55c0 1.766.85 3.27 2.224 4.185-.785 0-1.57-.261-2.224-.653v.13c0 2.42 1.7 4.513 3.924 4.97-.392.131-.85.197-1.308.197-.327 0-.654 0-.915-.066.654 2.027 2.42 3.466 4.577 3.532-1.7 1.373-3.793 2.157-6.147 2.157-.392 0-.785 0-1.177-.065a13.597 13.597 0 007.52 2.289c9.09 0 13.995-7.717 13.995-14.387v-.654c.98-.72 1.831-1.57 2.485-2.616-.85.393-1.831.654-2.812.785.98-.72 1.766-1.7 2.158-2.877z" fill="#B3B3B3"></path>
    </g>
    <defs>
      <clipPath id="clip0">
        <path fill="#fff" d="M0 0h24v24H0z"></path>
      </clipPath>
    </defs>
  </symbol>
  <symbol fill="fff" xmlns="http://www.w3.org/2000/svg" viewBox="0 0 12 12" id="Vector">
    <path d="M11.974 9.298c-.034-.102-.25-.253-.648-.452a19.972 19.972 0 00-.46-.256 32.7 32.7 0 01-.997-.562 11.171 11.171 0 00-.213-.15 2.395 2.395 0 00-.303-.183.558.558 0 00-.242-.06c-.114.001-.256.082-.426.244a4.15 4.15 0 00-.469.528c-.142.19-.293.367-.452.529-.159.162-.29.243-.392.243a.58.58 0 01-.191-.043 1.989 1.989 0 01-.175-.072c-.04-.02-.108-.06-.205-.12a5.297 5.297 0 00-.162-.098 8.956 8.956 0 01-2.002-1.483A8.951 8.951 0 013.154 5.36a4.945 4.945 0 00-.098-.162c-.06-.096-.1-.164-.12-.204a1.848 1.848 0 01-.072-.175.577.577 0 01-.043-.192c0-.102.081-.232.243-.392a4.96 4.96 0 01.529-.451c.19-.142.366-.298.528-.469.162-.17.243-.312.243-.426 0-.08-.02-.16-.06-.243a2.37 2.37 0 00-.183-.302l-.15-.214a18.685 18.685 0 01-.263-.455c-.091-.162-.19-.343-.299-.542a20.244 20.244 0 00-.255-.46c-.2-.397-.35-.613-.452-.647A.477.477 0 002.523 0c-.153 0-.354.028-.6.085a3.375 3.375 0 00-.585.18C1.054.382.753.73.435 1.303.145 1.838 0 2.366 0 2.889a3.291 3.291 0 00.137.938c.05.181.092.316.123.404.031.088.09.246.175.473.085.228.136.367.153.418a7.72 7.72 0 00.708 1.491c.448.728 1.06 1.48 1.836 2.255.776.775 1.527 1.387 2.254 1.836.438.273.935.509 1.492.708.051.017.19.068.417.153.228.085.385.144.473.175.088.031.223.072.405.124a3.272 3.272 0 00.938.136c.522 0 1.05-.145 1.585-.435.574-.318.92-.619 1.04-.903a3.35 3.35 0 00.178-.584c.057-.247.086-.447.086-.6 0-.08-.009-.14-.026-.18z" fill="#fff"></path>
  </symbol>
  <symbol fill="none" xmlns="http://www.w3.org/2000/svg"  id="Vector-phone">
    <path d="M11.974 9.298c-.034-.102-.25-.253-.648-.452a19.972 19.972 0 00-.46-.256 32.7 32.7 0 01-.997-.562 11.171 11.171 0 00-.213-.15 2.395 2.395 0 00-.303-.183.558.558 0 00-.242-.06c-.114.001-.256.082-.426.244a4.15 4.15 0 00-.469.528c-.142.19-.293.367-.452.529-.159.162-.29.243-.392.243a.58.58 0 01-.191-.043 1.989 1.989 0 01-.175-.072c-.04-.02-.108-.06-.205-.12a5.297 5.297 0 00-.162-.098 8.956 8.956 0 01-2.002-1.483A8.951 8.951 0 013.154 5.36a4.945 4.945 0 00-.098-.162c-.06-.096-.1-.164-.12-.204a1.848 1.848 0 01-.072-.175.577.577 0 01-.043-.192c0-.102.081-.232.243-.392a4.96 4.96 0 01.529-.451c.19-.142.366-.298.528-.469.162-.17.243-.312.243-.426 0-.08-.02-.16-.06-.243a2.37 2.37 0 00-.183-.302l-.15-.214a18.685 18.685 0 01-.263-.455c-.091-.162-.19-.343-.299-.542a20.244 20.244 0 00-.255-.46c-.2-.397-.35-.613-.452-.647A.477.477 0 002.523 0c-.153 0-.354.028-.6.085a3.375 3.375 0 00-.585.18C1.054.382.753.73.435 1.303.145 1.838 0 2.366 0 2.889a3.291 3.291 0 00.137.938c.05.181.092.316.123.404.031.088.09.246.175.473.085.228.136.367.153.418a7.72 7.72 0 00.708 1.491c.448.728 1.06 1.48 1.836 2.255.776.775 1.527 1.387 2.254 1.836.438.273.935.509 1.492.708.051.017.19.068.417.153.228.085.385.144.473.175.088.031.223.072.405.124a3.272 3.272 0 00.938.136c.522 0 1.05-.145 1.585-.435.574-.318.92-.619 1.04-.903a3.35 3.35 0 00.178-.584c.057-.247.086-.447.086-.6 0-.08-.009-.14-.026-.18z" fill="#497870"></path>
  </symbol>
  <symbol fill="none" xmlns="http://www.w3.org/2000/svg" viewBox="0 0 24 24" id="vk">
    <g clip-path="url(#clip0)">
      <path d="M23.87 17.526c0-.066-.066-.13-.066-.13-.393-.72-1.243-1.701-2.42-2.748-.523-.523-.85-.85-.98-1.046-.262-.327-.328-.654-.197-.98.13-.262.458-.786 1.112-1.636.327-.457.588-.784.785-1.046C23.541 8.044 24.195 6.801 24 6.278l-.065-.13c-.066-.197-.197-.262-.393-.328-.196-.065-.458-.065-.785 0H18.9c-.13 0-.13.066-.13.066h-.066l-.065.065c-.066 0-.066.065-.131.13-.066.066-.066.132-.131.197-.392.98-.85 1.962-1.308 2.812-.327.523-.588.98-.85 1.373s-.458.654-.654.85l-.458.458c-.13.13-.261.13-.327.13-.065 0-.13-.065-.196-.065-.13-.065-.196-.196-.261-.327-.066-.13-.131-.261-.131-.457s-.066-.393-.066-.523V6.8c0-.261 0-.458-.065-.588 0-.131-.065-.262-.13-.393-.066-.13-.132-.261-.262-.327l-.393-.196c-.458-.13-.98-.13-1.7-.13-1.57 0-2.55.065-3.008.326-.196.066-.327.196-.458.393-.13.196-.196.261-.065.327.523.065.85.261 1.046.523l.065.13c.066.131.131.327.197.589.065.262.065.589.13.916a6.279 6.279 0 010 1.569c-.065.458-.065.785-.13.981-.066.261-.066.458-.197.588l-.13.262c0 .065-.066.065-.066.065a.583.583 0 01-.327.066c-.13 0-.261-.066-.392-.196-.196-.131-.327-.262-.523-.458a3.167 3.167 0 01-.589-.85c-.196-.393-.458-.785-.72-1.308l-.195-.392c-.131-.262-.327-.589-.524-1.047-.196-.458-.392-.85-.588-1.308-.066-.13-.196-.261-.327-.392h-.066c-.065-.065-.13-.065-.196-.13-.065 0-.196-.066-.261-.066H.85c-.393 0-.655.13-.786.261v.066C0 6.147 0 6.212 0 6.278c0 .065 0 .196.065.327a54.383 54.383 0 001.635 3.4c.589 1.112 1.112 1.962 1.504 2.616.458.654.85 1.308 1.308 1.897.458.588.72.98.916 1.111.13.197.261.262.327.393l.327.327c.196.196.523.457.85.72.392.26.785.522 1.308.85a6.105 6.105 0 001.635.653c.654.196 1.242.262 1.83.196h1.44a1 1 0 00.653-.261l.066-.066c.065-.065.065-.13.065-.261s.066-.196.066-.327c0-.327 0-.654.065-.981.065-.262.13-.523.196-.654.066-.13.196-.262.262-.392.13-.131.196-.131.196-.197.065 0 .065-.065.13-.065.197-.065.459 0 .72.196.262.196.523.458.785.72.261.261.523.588.85.98.327.328.654.654.85.785l.262.131c.196.13.392.196.654.262.261.065.523.13.719.065l3.204-.065c.327 0 .589-.066.72-.131.196-.131.261-.196.327-.327.065-.131.065-.262 0-.458 0 0 0-.13-.066-.196z" fill="#B3B3B3"></path>
    </g>
    <defs>
      <clipPath id="clip0">
        <path fill="#fff" d="M0 0h24v24H0z"></path>
      </clipPath>
    </defs>
  </symbol>
</svg>