<svg xmlns="http://www.w3.org/2000/svg">
  <symbol fill="none" xmlns="http://www.w3.org/2000/svg" viewBox="0 0 31 24" id="checkmark">
      <path d="M28.414 1.655C26.483-.552 23.172-.552 21.24 1.38L11.034 11.586 8.829 9.38c-1.931-1.93-5.242-1.93-7.173 0H1.38c-1.93 1.931-1.93 5.242 0 7.173l6.07 6.069C8.551 23.724 9.93 24 11.033 24c1.38 0 2.483-.552 3.587-1.38L28.414 8.828c1.93-1.93 1.93-5.24 0-7.172z" fill="#497870"></path>
    <defs>
      <clipPath id="clip0">
        <path fill="#fff" d="M0 0h30.069v24H0z"></path >
      </clipPath>
    </defs>
  </symbol>
  <symbol fill="none" xmlns="http://www.w3.org/2000/svg" viewBox="0 0 24 24" id="f">
    <path d="M24 22.692c0 .72-.589 1.308-1.308 1.308h-6.147v-9.286h3.139l.458-3.597h-3.597V8.828c0-1.046.261-1.765 1.766-1.765h1.896v-3.27c-.327-.065-1.439-.13-2.812-.13-2.746 0-4.643 1.7-4.643 4.773v2.681H9.613v3.597h3.139V24H1.308C.588 24 0 23.411 0 22.692V1.308C0 .588.589 0 1.308 0h21.384C23.412 0 24 .589 24 1.308v21.384z" fill="#B3B3B3"></path>
  </symbol>
  <symbol fill="none" xmlns="http://www.w3.org/2000/svg" viewBox="0 0 68 68" id="feat-1">
    <path d="M34 2C16.431 2 2 16.431 2 34c0 17.569 14.431 32 32 32 17.569 0 32-14.431 32-32C66 16.431 51.569 2 34 2zm0 61.49C17.686 63.49 4.51 50.314 4.51 34S17.686 4.51 34 4.51 63.49 17.686 63.49 34 50.314 63.49 34 63.49z" fill="#000"></path>
    <path d="M34 50.627c-10.98 0-17.569-9.725-17.569-9.725l-2.196 1.569C23.02 53.765 34 53.45 34 53.45s10.98.627 19.765-10.98l-2.196-1.569S44.98 50.627 34 50.627zM23.333 37.451c7.53-3.451 8.785-7.843 8.785-10.04 0-2.509-1.569-5.333-4.393-5.333-3.137 0-4.392 1.57-4.392 1.57s-1.255-1.57-4.392-1.57c-2.823 0-4.392 3.138-4.392 5.334 0 2.196 1.255 6.588 8.784 10.039zm0-10.667c1.569-2.51 5.961-2.823 6.275.314 0 4.392-6.275 7.53-6.275 7.53s-6.274-3.138-6.274-7.53c.313-3.137 4.706-2.823 6.274-.314zm21.334 10.667c7.53-3.451 8.784-7.843 8.784-9.726 0-2.51-1.569-5.333-4.392-5.333-3.137 0-4.392 1.569-4.392 1.569s-1.255-1.569-4.392-1.569c-2.824 0-4.393 3.137-4.393 5.334 0 1.882 1.255 6.274 8.785 9.725zm0-10.667c1.568-2.51 5.96-2.823 6.274.314 0 4.392-6.274 7.53-6.274 7.53s-6.275-3.138-6.275-7.53c.314-3.137 4.706-2.823 6.275-.314z" fill="#000"></path>
  </symbol>
  <symbol fill="none" xmlns="http://www.w3.org/2000/svg" viewBox="0 0 68 69" id="feat-2">
    <path d="M62.03 19.665c.69-.69 1.38-1.38 1.725-2.07 2.415-3.105 2.07-4.485-.345-6.555-2.415-2.07-6.21 1.035-6.21 1.035l-.69.69c-3.795-3.45-8.625-6.21-14.145-7.59C40.295 2.07 37.19 0 33.74 0c-3.795 0-6.9 2.415-8.97 5.52-4.485 1.38-8.625 3.795-12.075 6.9-.69-.345-2.07-1.725-3.795-2.07-2.415-.345-4.83 1.38-5.175 3.795 0 1.38 1.38 3.45 3.105 5.52C3.725 24.495 2 30.015 2 36.225 2 53.82 16.49 68.31 34.43 68.31c6.21 0 12.42-1.725 17.25-4.83l-1.035-2.415c-4.485-11.385-3.45-18.63-3.105-22.08 1.035-3.795 4.83-8.97 6.9-11.73 1.38-1.725 3.45-3.45 5.52-5.52 2.76 4.14 4.14 8.97 4.14 14.49 0 7.935-3.45 15.18-8.625 20.7l2.07 1.725c5.865-5.865 9.315-13.8 9.315-22.425 0-6.21-1.725-11.73-4.83-16.56zM33.74 2.76c4.485 0 7.935 4.14 7.935 9.315s-3.45 9.315-7.935 9.315c-4.485 0-7.935-3.795-7.935-9.315s3.45-9.315 7.935-9.315zm0 21.39c5.865 0 10.695-5.52 10.695-12.075 0-1.38-.345-2.415-.69-3.795 4.14 1.38 7.59 3.45 10.695 6.21-2.76 2.415-6.9 5.52-8.97 6.9-3.105 2.415-8.28 4.83-12.42 4.83-4.14 0-6.21-1.725-9.315-3.105-2.76-1.38-7.245-6.555-9.315-8.625 2.76-2.415 5.865-4.14 8.97-5.52 0 1.035-.345 2.07-.345 3.105 0 6.9 4.83 12.075 10.695 12.075zM4.76 36.225c0-5.175 1.38-10.005 3.795-14.49L9.59 22.77s8.625 10.005 10.35 12.42c1.725 2.415-.345 4.14-1.725 10.35-1.035 4.83-1.035 11.385-1.035 14.49C9.59 54.51 4.76 45.885 4.76 36.225zm53.475-16.56c-1.38 1.38-6.21 5.52-10.35 12.075s-3.45 11.73-3.105 15.525c.345 3.795 1.38 7.245 1.725 8.625.345 1.035 1.725 4.83 2.07 5.865-4.14 2.07-8.97 3.45-13.8 3.45-5.52 0-10.35-1.38-14.835-3.795 0-11.73.69-13.455 1.035-15.18 0-1.725 1.035-5.175 2.07-7.935.69-2.415-.345-4.485-1.38-5.52C20.63 31.74 10.625 19.665 8.9 17.25c-2.07-2.415-2.415-3.45-.69-4.14 1.725-1.035 6.21 4.485 8.28 6.9 1.725 2.415 9.66 8.97 16.905 8.625 7.245-.345 12.42-4.14 14.49-5.52 1.725-1.38 10.695-8.625 12.075-9.66 1.38-1.035 3.105 0 2.76 1.035-.345 1.035-3.105 3.795-4.485 5.175z" fill="#000"></path>
  </symbol>
  <symbol fill="none" xmlns="http://www.w3.org/2000/svg" viewBox="0 0 68 68" id="feat-3">
    <path d="M51.937 15.45c-6.027 0-13.776 4.305-13.489 13.201 0 0-11.766-3.73-15.21 8.61 0 0-2.01-4.305-4.592-6.314-2.87-2.008-6.314-7.174-6.601-9.757.287-1.435.574-1.435 1.148-1.722.287 0 .287 2.296 2.87 2.583 2.296-.287 2.87-.861 3.73-2.01l2.584-2.87s2.583-3.443.287-5.165c-2.01-2.01-5.74-5.74-10.332-4.88C9.749 7.702 7.74 9.71 7.74 9.71l-3.444 3.157S2 15.163 2 19.755c0 4.018.861 10.619.861 10.619l1.148 6.887c.287 1.722 2.583 11.767 8.036 17.22 3.444 4.018 5.453 5.74 7.175 6.027 2.87 0 4.305-1.722 6.6-1.722 2.297 0 4.593 1.722 9.471 1.722 4.88 0 15.785-2.87 20.377-16.933C59.973 41.853 66 38.696 66 29.225c0-9.47-8.323-13.775-14.063-13.775zm2.01 26.403C50.788 54.481 40.743 57.925 35.864 58.5c-4.592 0-7.174-1.722-10.618-1.722-2.01 0-4.88 1.722-5.74 1.722-.861 0-3.157-2.009-6.027-5.166-2.87-3.157-4.018-6.027-5.166-8.323-1.148-2.296-3.157-11.48-3.157-11.48s-.861-9.183-.861-13.201c0-3.731 1.722-6.027 1.722-6.027l4.592-4.018c2.583-2.01 5.74-.574 5.74-.574s3.157 2.009 4.305 3.157c1.435 1.148 0 2.296 0 2.296s-3.157 4.018-4.305 4.305c-1.435.287-1.722-3.157-1.722-3.157-1.435.574-3.731 1.148-4.592 3.73-.861 3.158 3.73 9.758 7.175 12.915 3.157 3.157 5.166 8.323 5.166 8.323l2.583-.86s-.287-6.028 4.879-9.184c5.74-3.157 10.905 1.148 10.905 1.148-1.722-14.35 10.906-14.637 11.767-14.637.861 0 10.906.86 11.767 10.905-.574 11.48-10.332 13.202-10.332 13.202z" fill="#000"></path>
  </symbol>
  <symbol viewBox="0 0 24 24" id="in">
    <path d="M21.123 0H2.877C1.307 0 0 1.243 0 2.812v18.376C0 22.758 1.308 24 2.877 24h18.246C22.693 24 24 22.758 24 21.188V2.812C24 1.242 22.692 0 21.123 0zm-3.859 3.728c0-.393.327-.72.72-.72h2.288c.393 0 .72.327.72.72V5.95c0 .392-.327.72-.72.72H18.05a.726.726 0 01-.72-.72l-.065-2.223zM12.033 7.39c2.55 0 4.643 2.027 4.643 4.577s-2.093 4.578-4.643 4.578-4.643-2.027-4.643-4.578c0-2.485 2.092-4.577 4.643-4.577zm9.678 13.602c0 .392-.327.72-.72.72H3.009a.726.726 0 01-.72-.72V9.744h2.944c-.393.588-.524 1.635-.524 2.289 0 3.989 3.27 7.259 7.325 7.259 4.054 0 7.324-3.27 7.324-7.26 0-.653-.065-1.7-.589-2.288h3.009l-.066 11.248z" fill="#B3B3B3"></path>
  </symbol>
  <symbol fill="#fff" xmlns="http://www.w3.org/2000/svg" viewBox="0 0 52 52" id="main-1">
    <path d="M15.94 11.627c0 .616 1.232 1.232 3.08 1.232 1.85 0 3.082-.616 3.082-1.232 0-.617-1.233-1.233-3.081-1.233-1.54 0-3.081.308-3.081 1.233z" fill="#fff"></path>
    <path d="M49.214 23.026a5.523 5.523 0 00-5.546-5.546H15.324s-7.395.308-10.784-5.545C4.85 7.62 8.238 4.54 12.55 4.54h12.325c4.62 0 8.01 3.698 8.01 8.01v1.541h1.54V12.86c0-5.547-4.313-9.86-9.859-9.86H12.86C7.313 3 3 7.313 3 12.859V27.34c0 5.545 4.313 9.858 9.859 9.858h2.156v-1.54h-2.464c-4.622 0-8.01-3.697-8.01-8.01V14.706c.924 1.233 4.005 4.314 10.474 4.314h28.653c2.157 0 3.697 1.54 3.697 3.697v2.465c0 2.156-1.54 3.697-3.697 3.697H23.95a5.523 5.523 0 00-5.545 5.545v8.319a5.523 5.523 0 005.545 5.545h19.718a5.523 5.523 0 005.546-5.545V23.025zM47.365 43.36c0 2.157-1.54 3.697-3.697 3.697H23.642c-2.157 0-3.697-1.54-3.697-3.697v-8.935c0-2.156 1.54-3.697 3.697-3.697h5.854v5.238h1.54v-5.238h9.859v5.238h1.54v-5.238h1.233c1.54 0 3.08-.616 4.005-1.54V43.36h-.308z" fill="#fff"></path>
  </symbol>
  <symbol fill="#fff" xmlns="http://www.w3.org/2000/svg" viewBox="0 0 52 52" id="main-2">
    <path d="M8.48 31.036c0 .616.309 1.233.309 1.849 0 2.465.308 6.47.308 6.47h1.54s0-6.47-.924-9.86c-.924-3.696-1.232-10.474.924-15.404l-1.54-.616s-1.849 3.697-1.849 9.55c0 3.698.308 5.239.616 6.779-1.232-.924-4.621-4.005-4.313-10.475.616-7.394 7.086-14.172 7.086-14.172s11.4 10.783 1.233 22.798l1.232.925s4.621-5.238 4.621-11.092c0-5.853-2.464-10.783-7.086-14.788 0 0-8.01 7.702-8.626 16.945-.308 8.627 6.161 11.707 6.161 11.707l.309-.616z" fill="#fff"></path>
    <path d="M24.501 23.026c-11.4 3.389-10.783 14.48-10.475 16.945-4.005 4.005-5.854 7.702-5.854 7.702l1.233.616C21.112 28.88 39.29 32.577 39.29 32.577v-1.54c-11.092-1.233-18.794 3.08-24.031 7.394-.309-4.006 1.54-13.556 13.247-14.48 13.556-.309 20.026 7.701 20.026 7.701-7.086 11.4-15.096 12.94-20.025 13.556-5.238.925-11.708-2.772-11.708-2.772l-.616 1.232s5.546 3.697 12.632 3.08C44.219 44.9 50.073 31.345 50.073 31.345c-1.54-3.08-12.94-11.399-25.572-8.318z" fill="#fff"></path>
  </symbol>
  <symbol fill="#fff" xmlns="http://www.w3.org/2000/svg" viewBox="0 0 52 52" id="main-3">
    <path d="M8.685 21.095L11.43 18.9h.274c.823 0 1.372-.55 1.372-1.373 0-.549-.274-.823-.549-1.098v-5.763h-1.372v5.764c-.549.274-.823.548-.823 1.097v.275l-2.745 2.195 1.098 1.098z" fill="#fff"></path>
    <path d="M50.403 35.916v-8.783c0-2.744-1.098-3.842-1.098-3.842s-2.745-3.568-4.391-5.764c-1.647-2.195-3.843-2.195-3.843-2.195H31.74v-1.373c0-1.92-1.373-3.293-3.294-3.293h-7.96C18.567 7.92 15.273 6 11.705 6 5.666 6 1 10.94 1 16.978c0 2.47.823 4.666 2.196 6.587v12.077c0 1.92 1.372 3.293 3.293 3.293h1.372v.275c0 3.293 2.745 6.038 6.039 6.038 3.293 0 6.038-2.745 6.038-6.038v-.275H33.66v.275c0 3.293 2.744 6.038 6.038 6.038 3.293 0 6.038-2.745 6.038-6.038v-.275h.549c4.666.275 4.117-3.019 4.117-3.019zM49.03 26.31v.823H38.327c-.55 0-1.098-.549-1.098-1.097v-4.392c0-.549.549-1.098 1.098-1.098h7.136c.823.824 1.646 1.922 2.195 2.745 1.373 1.647 1.373 3.019 1.373 3.019zM11.704 7.647c5.215 0 9.606 4.117 9.606 9.606s-4.391 9.331-9.606 9.331-9.332-4.39-9.332-9.606c0-5.214 4.117-9.331 9.332-9.331zm1.921 36.228c-2.47 0-4.391-1.92-4.391-4.39 0-2.471 1.921-4.392 4.391-4.392 2.47 0 4.392 1.921 4.392 4.391 0 2.47-1.922 4.391-4.392 4.391zm5.49-6.312c-.824-2.196-3.02-4.117-5.49-4.117s-4.666 1.647-5.49 4.117h-1.92c-.824 0-1.647-.824-1.647-1.647V24.938c1.921 1.646 4.391 2.744 7.136 2.744 6.038 0 10.704-4.94 10.704-10.704 0-1.646-.55-3.293-1.098-4.665h7.136c.823 0 1.647.823 1.647 1.646v21.957c0 .824-.824 1.647-1.647 1.647h-9.332zm20.31 6.312c-2.47 0-4.392-1.92-4.392-4.39 0-2.471 1.921-4.392 4.391-4.392 2.47 0 4.392 1.921 4.392 4.391 0 2.47-1.922 4.391-4.392 4.391zm6.86-6.038h-1.097c-.823-2.47-3.019-4.117-5.49-4.117-2.744 0-4.94 1.647-5.488 4.117h-2.745c.549-.549.823-1.098.823-1.92V16.428h8.509c2.47 0 3.568 1.647 3.568 1.647s-.275.55.274 1.098h-6.313c-1.372 0-2.195 1.098-2.195 2.196v4.391c0 1.372 1.098 2.196 2.196 2.196h10.978v7.136c-.274 3.019-3.02 2.744-3.02 2.744z" fill="#fff"></path>
  </symbol>

  <symbol fill="none" xmlns="http://www.w3.org/2000/svg" viewBox="0 0 68 68" id="feat-3">
    <path d="M51.937 15.45c-6.027 0-13.776 4.305-13.489 13.201 0 0-11.766-3.73-15.21 8.61 0 0-2.01-4.305-4.592-6.314-2.87-2.008-6.314-7.174-6.601-9.757.287-1.435.574-1.435 1.148-1.722.287 0 .287 2.296 2.87 2.583 2.296-.287 2.87-.861 3.73-2.01l2.584-2.87s2.583-3.443.287-5.165c-2.01-2.01-5.74-5.74-10.332-4.88C9.749 7.702 7.74 9.71 7.74 9.71l-3.444 3.157S2 15.163 2 19.755c0 4.018.861 10.619.861 10.619l1.148 6.887c.287 1.722 2.583 11.767 8.036 17.22 3.444 4.018 5.453 5.74 7.175 6.027 2.87 0 4.305-1.722 6.6-1.722 2.297 0 4.593 1.722 9.471 1.722 4.88 0 15.785-2.87 20.377-16.933C59.973 41.853 66 38.696 66 29.225c0-9.47-8.323-13.775-14.063-13.775zm2.01 26.403C50.788 54.481 40.743 57.925 35.864 58.5c-4.592 0-7.174-1.722-10.618-1.722-2.01 0-4.88 1.722-5.74 1.722-.861 0-3.157-2.009-6.027-5.166-2.87-3.157-4.018-6.027-5.166-8.323-1.148-2.296-3.157-11.48-3.157-11.48s-.861-9.183-.861-13.201c0-3.731 1.722-6.027 1.722-6.027l4.592-4.018c2.583-2.01 5.74-.574 5.74-.574s3.157 2.009 4.305 3.157c1.435 1.148 0 2.296 0 2.296s-3.157 4.018-4.305 4.305c-1.435.287-1.722-3.157-1.722-3.157-1.435.574-3.731 1.148-4.592 3.73-.861 3.158 3.73 9.758 7.175 12.915 3.157 3.157 5.166 8.323 5.166 8.323l2.583-.86s-.287-6.028 4.879-9.184c5.74-3.157 10.905 1.148 10.905 1.148-1.722-14.35 10.906-14.637 11.767-14.637.861 0 10.906.86 11.767 10.905-.574 11.48-10.332 13.202-10.332 13.202z" fill="#000"></path>
  </symbol>

  <symbol viewBox="0 0 24 24"  id="arrowleft">">
        <path d="M14 28L1.91422 15.9142C1.13317 15.1332 1.13317 13.8668 1.91421 13.0858L14 1"/>
  </symbol>

  <symbol viewBox="0 0 24 24" id="arrowright">">
        <path  d="M14 28L1.91422 15.9142C1.13317 15.1332 1.13317 13.8668 1.91421 13.0858L14 1" fill="#000"/>
  </symbol>

  <symbol fill="none" xmlns="http://www.w3.org/2000/svg" id="img-close-fullscreen">
        <path d="M13.5556 10L19.3333 4.22222C20.2222 3.33333 20.2222 2 19.3333 1.22222L18.8889 0.777778C18 -0.111111 16.6667 -0.111111 15.8889 0.777778L10 6.44445L4.22222 0.666667C3.33333 -0.222222 2 -0.222222 1.11111 0.666667L0.666667 1.11111C-0.222222 2 -0.222222 3.33333 0.666667 4.11111L6.44445 10L0.666667 15.7778C-0.222222 16.6667 -0.222222 18 0.666667 18.7778L1.11111 19.3333C2 20.2222 3.33333 20.2222 4.11111 19.3333L10 13.5556L15.7778 19.3333C16.6667 20.2222 18 20.2222 18.7778 19.3333L19.2222 18.8889C20.1111 18 20.1111 16.6667 19.2222 15.8889L13.5556 10Z"  fill="#fff"/>
  </symbol>

  <symbol fill="none" xmlns="http://www.w3.org/2000/svg" viewBox="0 0 24 24" id="f">
    <path d="M24 22.692c0 .72-.589 1.308-1.308 1.308h-6.147v-9.286h3.139l.458-3.597h-3.597V8.828c0-1.046.261-1.765 1.766-1.765h1.896v-3.27c-.327-.065-1.439-.13-2.812-.13-2.746 0-4.643 1.7-4.643 4.773v2.681H9.613v3.597h3.139V24H1.308C.588 24 0 23.411 0 22.692V1.308C0 .588.589 0 1.308 0h21.384C23.412 0 24 .589 24 1.308v21.384z" fill="#B3B3B3"></path>
  </symbol>

  <symbol fill="none" xmlns="http://www.w3.org/2000/svg" viewBox="0 0 24 24"  id="tv">   
        <path d="M23.346 2.42c-.98.588-2.027.98-3.139 1.242a4.838 4.838 0 00-3.597-1.57c-2.746 0-4.904 2.29-4.904 5.036 0 .392.065.785.13 1.177C7.716 8.044 4.12 6.016 1.7 2.943a5.466 5.466 0 00-.654 2.55c0 1.766.85 3.27 2.224 4.185-.785 0-1.57-.261-2.224-.653v.13c0 2.42 1.7 4.513 3.924 4.97-.392.131-.85.197-1.308.197-.327 0-.654 0-.915-.066.654 2.027 2.42 3.466 4.577 3.532-1.7 1.373-3.793 2.157-6.147 2.157-.392 0-.785 0-1.177-.065a13.597 13.597 0 007.52 2.289c9.09 0 13.995-7.717 13.995-14.387v-.654c.98-.72 1.831-1.57 2.485-2.616-.85.393-1.831.654-2.812.785.98-.72 1.766-1.7 2.158-2.877z" fill="#B3B3B3"></path>
  </symbol>

  <symbol viewBox="0 0 12 12" id="Vector">
    <path d="M11.974 9.298c-.034-.102-.25-.253-.648-.452a19.972 19.972 0 00-.46-.256 32.7 32.7 0 01-.997-.562 11.171 11.171 0 00-.213-.15 2.395 2.395 0 00-.303-.183.558.558 0 00-.242-.06c-.114.001-.256.082-.426.244a4.15 4.15 0 00-.469.528c-.142.19-.293.367-.452.529-.159.162-.29.243-.392.243a.58.58 0 01-.191-.043 1.989 1.989 0 01-.175-.072c-.04-.02-.108-.06-.205-.12a5.297 5.297 0 00-.162-.098 8.956 8.956 0 01-2.002-1.483A8.951 8.951 0 013.154 5.36a4.945 4.945 0 00-.098-.162c-.06-.096-.1-.164-.12-.204a1.848 1.848 0 01-.072-.175.577.577 0 01-.043-.192c0-.102.081-.232.243-.392a4.96 4.96 0 01.529-.451c.19-.142.366-.298.528-.469.162-.17.243-.312.243-.426 0-.08-.02-.16-.06-.243a2.37 2.37 0 00-.183-.302l-.15-.214a18.685 18.685 0 01-.263-.455c-.091-.162-.19-.343-.299-.542a20.244 20.244 0 00-.255-.46c-.2-.397-.35-.613-.452-.647A.477.477 0 002.523 0c-.153 0-.354.028-.6.085a3.375 3.375 0 00-.585.18C1.054.382.753.73.435 1.303.145 1.838 0 2.366 0 2.889a3.291 3.291 0 00.137.938c.05.181.092.316.123.404.031.088.09.246.175.473.085.228.136.367.153.418a7.72 7.72 0 00.708 1.491c.448.728 1.06 1.48 1.836 2.255.776.775 1.527 1.387 2.254 1.836.438.273.935.509 1.492.708.051.017.19.068.417.153.228.085.385.144.473.175.088.031.223.072.405.124a3.272 3.272 0 00.938.136c.522 0 1.05-.145 1.585-.435.574-.318.92-.619 1.04-.903a3.35 3.35 0 00.178-.584c.057-.247.086-.447.086-.6 0-.08-.009-.14-.026-.18z" fill="#fff"></path>
  </symbol>

  <symbol  id="Vector-phone">
    <path d="M11.974 9.298c-.034-.102-.25-.253-.648-.452a19.972 19.972 0 00-.46-.256 32.7 32.7 0 01-.997-.562 11.171 11.171 0 00-.213-.15 2.395 2.395 0 00-.303-.183.558.558 0 00-.242-.06c-.114.001-.256.082-.426.244a4.15 4.15 0 00-.469.528c-.142.19-.293.367-.452.529-.159.162-.29.243-.392.243a.58.58 0 01-.191-.043 1.989 1.989 0 01-.175-.072c-.04-.02-.108-.06-.205-.12a5.297 5.297 0 00-.162-.098 8.956 8.956 0 01-2.002-1.483A8.951 8.951 0 013.154 5.36a4.945 4.945 0 00-.098-.162c-.06-.096-.1-.164-.12-.204a1.848 1.848 0 01-.072-.175.577.577 0 01-.043-.192c0-.102.081-.232.243-.392a4.96 4.96 0 01.529-.451c.19-.142.366-.298.528-.469.162-.17.243-.312.243-.426 0-.08-.02-.16-.06-.243a2.37 2.37 0 00-.183-.302l-.15-.214a18.685 18.685 0 01-.263-.455c-.091-.162-.19-.343-.299-.542a20.244 20.244 0 00-.255-.46c-.2-.397-.35-.613-.452-.647A.477.477 0 002.523 0c-.153 0-.354.028-.6.085a3.375 3.375 0 00-.585.18C1.054.382.753.73.435 1.303.145 1.838 0 2.366 0 2.889a3.291 3.291 0 00.137.938c.05.181.092.316.123.404.031.088.09.246.175.473.085.228.136.367.153.418a7.72 7.72 0 00.708 1.491c.448.728 1.06 1.48 1.836 2.255.776.775 1.527 1.387 2.254 1.836.438.273.935.509 1.492.708.051.017.19.068.417.153.228.085.385.144.473.175.088.031.223.072.405.124a3.272 3.272 0 00.938.136c.522 0 1.05-.145 1.585-.435.574-.318.92-.619 1.04-.903a3.35 3.35 0 00.178-.584c.057-.247.086-.447.086-.6 0-.08-.009-.14-.026-.18z" fill="#497870"></path>
  </symbol>

  <symbol viewBox="0 0 24 24" id="vk">
      <path d="M23.87 17.526c0-.066-.066-.13-.066-.13-.393-.72-1.243-1.701-2.42-2.748-.523-.523-.85-.85-.98-1.046-.262-.327-.328-.654-.197-.98.13-.262.458-.786 1.112-1.636.327-.457.588-.784.785-1.046C23.541 8.044 24.195 6.801 24 6.278l-.065-.13c-.066-.197-.197-.262-.393-.328-.196-.065-.458-.065-.785 0H18.9c-.13 0-.13.066-.13.066h-.066l-.065.065c-.066 0-.066.065-.131.13-.066.066-.066.132-.131.197-.392.98-.85 1.962-1.308 2.812-.327.523-.588.98-.85 1.373s-.458.654-.654.85l-.458.458c-.13.13-.261.13-.327.13-.065 0-.13-.065-.196-.065-.13-.065-.196-.196-.261-.327-.066-.13-.131-.261-.131-.457s-.066-.393-.066-.523V6.8c0-.261 0-.458-.065-.588 0-.131-.065-.262-.13-.393-.066-.13-.132-.261-.262-.327l-.393-.196c-.458-.13-.98-.13-1.7-.13-1.57 0-2.55.065-3.008.326-.196.066-.327.196-.458.393-.13.196-.196.261-.065.327.523.065.85.261 1.046.523l.065.13c.066.131.131.327.197.589.065.262.065.589.13.916a6.279 6.279 0 010 1.569c-.065.458-.065.785-.13.981-.066.261-.066.458-.197.588l-.13.262c0 .065-.066.065-.066.065a.583.583 0 01-.327.066c-.13 0-.261-.066-.392-.196-.196-.131-.327-.262-.523-.458a3.167 3.167 0 01-.589-.85c-.196-.393-.458-.785-.72-1.308l-.195-.392c-.131-.262-.327-.589-.524-1.047-.196-.458-.392-.85-.588-1.308-.066-.13-.196-.261-.327-.392h-.066c-.065-.065-.13-.065-.196-.13-.065 0-.196-.066-.261-.066H.85c-.393 0-.655.13-.786.261v.066C0 6.147 0 6.212 0 6.278c0 .065 0 .196.065.327a54.383 54.383 0 001.635 3.4c.589 1.112 1.112 1.962 1.504 2.616.458.654.85 1.308 1.308 1.897.458.588.72.98.916 1.111.13.197.261.262.327.393l.327.327c.196.196.523.457.85.72.392.26.785.522 1.308.85a6.105 6.105 0 001.635.653c.654.196 1.242.262 1.83.196h1.44a1 1 0 00.653-.261l.066-.066c.065-.065.065-.13.065-.261s.066-.196.066-.327c0-.327 0-.654.065-.981.065-.262.13-.523.196-.654.066-.13.196-.262.262-.392.13-.131.196-.131.196-.197.065 0 .065-.065.13-.065.197-.065.459 0 .72.196.262.196.523.458.785.72.261.261.523.588.85.98.327.328.654.654.85.785l.262.131c.196.13.392.196.654.262.261.065.523.13.719.065l3.204-.065c.327 0 .589-.066.72-.131.196-.131.261-.196.327-.327.065-.131.065-.262 0-.458 0 0 0-.13-.066-.196z" fill="#B3B3B3"></path>
  </symbol>

  <symbol viewBox="0 0 32 32" id="img-grape">
			<path xmlns="http://www.w3.org/2000/svg" fill="black" d="M20.443 16.7139C22.6035 15.225 22.0963 11.5147 19.5084 10.8008C19.3252 10.7491 18.5973 10.7773 18.508 10.6927C18.3624 10.5518 18.2732 9.88022 18.1605 9.67356C17.8364 9.07708 17.3198 8.59802 16.7139 8.30683C15.4458 7.69626 13.9147 7.95928 12.9706 9.01603C12.0595 7.7855 10.472 7.40976 9.10058 8.072C8.49001 8.36319 7.96398 8.83755 7.62582 9.41994C7.45205 9.72053 7.32524 10.0446 7.25479 10.3875C7.17494 10.7961 7.27827 11.1718 7.24539 11.571C7.22191 11.8481 7.28766 11.7918 6.98708 11.9045C6.818 11.9702 6.65361 12.0501 6.49393 12.144C6.14637 12.3554 5.84578 12.6325 5.60156 12.9565C5.13659 13.5765 4.89706 14.3608 4.92054 15.1358C4.92993 15.488 5.00038 15.8403 5.1225 16.1738C5.19295 16.3663 5.28688 16.5542 5.39021 16.7327C5.43717 16.8078 5.5452 16.9205 5.56868 16.9957C5.63913 17.2117 5.63913 17.0379 5.5358 17.2446C5.33854 17.6297 4.9769 17.9068 4.80312 18.3295C4.62465 18.7569 4.54011 19.2172 4.54481 19.6822C4.5495 20.119 4.63874 20.5511 4.80782 20.9503C4.88766 21.1428 5.01917 21.3072 5.10371 21.4951C5.17416 21.6501 5.23052 21.636 5.19295 21.7675C5.17416 21.8286 4.91115 22.0211 4.87357 22.0634C4.30058 22.6974 3.9953 23.5334 3.99999 24.3741C4.01408 26.1918 5.50762 27.7135 7.34872 27.6195C8.17533 27.5773 8.97377 27.2109 9.54207 26.6051C9.62661 26.5158 9.85674 26.079 9.95537 26.0462C10.0352 26.0227 10.4438 26.234 10.5284 26.2575C10.9605 26.3702 11.416 26.3843 11.8575 26.3045C12.6794 26.1589 13.4309 25.6892 13.9194 25.0129C14.0556 24.8297 14.1307 24.5996 14.2622 24.4211C14.2951 24.3788 14.3186 24.2004 14.3609 24.1769C14.3796 24.1675 14.6661 24.2614 14.7272 24.2708C15.2063 24.3648 15.7088 24.3413 16.1832 24.2098C16.681 24.0689 17.146 23.8059 17.5264 23.4536C17.6297 23.355 17.9444 22.8477 18.0571 22.8055C18.1839 22.7632 18.6113 22.9511 18.7616 22.9698C19.7573 23.0779 20.7671 22.6833 21.4528 21.9601C22.9323 20.382 22.4203 17.6391 20.443 16.7139C20.5699 16.6246 20.6967 16.5401 20.8235 16.4509C20.6967 16.5401 20.5699 16.6246 20.443 16.7139ZM17.8035 13.3511C17.9209 13.2149 18.0383 13.0552 18.1182 12.8955C18.1464 12.8485 18.1699 12.8015 18.1933 12.7499C18.3061 12.5197 18.4 12.2849 18.4564 12.036C18.5362 11.6931 18.4657 11.6462 18.8039 11.6133C19.128 11.5851 19.5178 11.7448 19.7855 11.9045C20.3256 12.2286 20.6779 12.7922 20.8188 13.398C20.955 13.9898 20.8939 14.6379 20.6121 15.1781C20.4618 15.4693 20.2458 15.7229 19.9828 15.9154C19.8935 15.9812 19.1092 16.3569 19.1092 16.2724C19.1092 16.2583 19.1092 16.2395 19.1092 16.2254C19.1139 16.1174 19.1092 16 19.0998 15.892C19.0998 15.8732 19.0951 15.8591 19.0951 15.8403C19.0951 15.8403 19.0951 15.8356 19.0951 15.8309C18.9965 14.8728 18.508 13.9945 17.7143 13.4403C17.7472 13.4168 17.7753 13.3839 17.8035 13.3511C17.8176 13.337 17.7753 13.3839 17.8035 13.3511C17.9209 13.2149 17.7753 13.3839 17.8035 13.3511ZM17.7378 14.746C17.7472 14.7554 17.7519 14.7648 17.7565 14.7741C17.874 14.9385 17.9632 15.117 18.0383 15.3002C18.0477 15.3237 18.0524 15.3424 18.0618 15.3659C18.0665 15.3753 18.0665 15.3847 18.0712 15.3941C18.0759 15.4082 18.0806 15.4223 18.0853 15.4364C18.137 15.5867 18.1605 15.7464 18.1839 15.9013C18.1839 15.9248 18.1886 15.9436 18.1886 15.9671C18.1886 15.9765 18.1886 15.9906 18.1933 16C18.1933 16.0235 18.198 16.0422 18.198 16.0657C18.198 16.0704 18.198 16.0751 18.198 16.0798C18.2074 16.2818 18.2027 16.5213 18.137 16.7139C18.1323 16.7327 18.1323 16.7514 18.1276 16.7655C17.7941 17.5734 17.2775 18.292 16.371 18.4845C15.8074 18.6066 15.1264 18.5033 14.6567 18.1511C14.6192 18.1276 14.5816 18.0994 14.5487 18.0759C13.5859 17.3432 13.4074 16.0235 13.9804 14.9902C14.5722 13.9194 15.6524 13.6047 16.7702 13.9804C16.7937 13.9898 16.8172 14.0039 16.8407 14.0133C16.8642 14.0227 16.8877 14.0368 16.9111 14.0462C16.9158 14.0462 16.9205 14.0509 16.9252 14.0509C16.991 14.0837 17.0567 14.1213 17.1178 14.1636C17.1742 14.2012 17.2305 14.2387 17.2869 14.281C17.3385 14.3186 17.3855 14.3608 17.4325 14.4078C17.4419 14.4172 17.4513 14.4219 17.456 14.4313C17.5217 14.483 17.7143 14.7178 17.7378 14.746C17.7425 14.7554 17.7096 14.7084 17.7378 14.746ZM12.8156 15.2532C12.7875 15.3565 12.764 15.4646 12.7452 15.5679C12.0783 15.5867 11.4912 15.2908 11.0309 14.8258C10.7444 14.5111 10.5472 14.126 10.4579 13.708C10.0211 12.562 11.0826 11.1718 12.1487 10.9041C12.0266 12.0736 12.5667 13.2712 13.5295 13.9522C13.1961 14.328 12.9519 14.7788 12.8156 15.2579C12.8344 15.1922 12.8532 15.1264 12.872 15.0559C12.8532 15.1264 12.8344 15.1875 12.8156 15.2532C12.7875 15.3565 12.9519 14.7695 12.8156 15.2532ZM13.4967 18.3436C12.9659 18.7194 12.4869 19.3017 12.3037 19.9358C12.2286 19.917 12.1534 19.8982 12.0783 19.87C11.8669 19.7996 11.6368 19.7855 11.416 19.7808C11.3268 19.7808 11.2376 19.7808 11.1483 19.7855C11.0779 19.7996 11.0121 19.8043 10.9417 19.8043C10.8853 19.809 10.829 19.8137 10.7773 19.8278C10.7726 19.8278 10.7679 19.8278 10.7679 19.8278C10.7444 19.8372 10.7209 19.8419 10.6974 19.8419C9.93189 19.4239 9.42465 18.5597 9.46692 17.6814V17.6767C9.46692 17.6532 9.46692 17.6297 9.47162 17.6062C9.47162 17.6015 9.47162 17.6015 9.47162 17.5968C9.47162 17.5781 9.47631 17.5593 9.47631 17.5452V17.5405C9.48101 17.4747 9.48571 17.3855 9.50449 17.3197C9.51858 17.2305 9.54207 17.1413 9.56555 17.0567C9.56555 17.052 9.56555 17.052 9.57025 17.0473C9.57025 17.0426 9.57494 17.0379 9.57494 17.0332C9.62191 16.8736 9.69236 16.7327 9.76281 16.5824C9.80038 16.5166 9.83796 16.4509 9.88492 16.3851C10.007 16.1972 10.162 16.0282 10.3405 15.8873C10.3922 15.8356 10.4438 15.7933 10.5096 15.7604C10.5284 15.7464 10.5472 15.7323 10.5659 15.7229C10.58 15.7135 10.5941 15.7041 10.6082 15.6994C11.1859 16.2113 11.9233 16.4931 12.6935 16.4931H12.7076C12.7217 16.6716 12.7405 16.9299 12.825 17.0943C12.8344 17.1272 12.8438 17.1601 12.8579 17.1976C12.8579 17.2023 12.8626 17.2023 12.8626 17.207C12.872 17.2399 12.8861 17.2728 12.8955 17.3104C13.027 17.6861 13.2337 18.0383 13.4967 18.3436ZM13.337 10.0963C13.337 10.0916 13.3417 10.0869 13.3417 10.0822V10.0775C14.4595 8.02973 17.6016 8.94558 17.6297 11.2141C17.6297 11.2188 17.6297 11.2235 17.6297 11.2282V11.2329C17.6297 11.7777 17.4419 12.3037 17.1131 12.7311C17.1084 12.7358 17.1084 12.7358 17.1037 12.7405C17.0286 12.8391 16.9393 12.9284 16.8501 13.0129C16.2301 12.8109 15.3753 12.7734 14.7742 13.074C14.6849 13.1068 14.3421 13.3276 14.2669 13.3229C14.1448 13.3182 13.9569 13.1162 13.8724 13.0458C13.6 12.8156 13.3839 12.5197 13.243 12.191C13.243 12.1863 13.2383 12.1816 13.2383 12.1816C12.9565 11.5147 13.0223 10.6599 13.3182 10.115C13.2947 10.1714 13.2994 10.162 13.337 10.0963C13.337 10.0916 13.2665 10.2278 13.337 10.0963ZM10.411 8.64029C11.2517 8.64029 12.0219 9.11935 12.4211 9.87082C12.4164 9.88022 12.4164 9.88491 12.4117 9.89431C12.407 9.9037 12.4023 9.91779 12.3976 9.92718C10.7585 10.0822 9.50449 11.5475 9.48101 13.1726C9.29314 13.0927 9.10997 12.9753 8.95498 12.8391C8.9362 12.825 8.92211 12.8109 8.90332 12.7968C7.21252 11.5241 8.40547 8.64029 10.411 8.64029ZM7.63991 12.6794C7.64461 12.6841 7.64461 12.6888 7.64931 12.6935C7.70567 12.7922 7.79021 12.9471 7.87475 13.0317C7.88884 13.0505 7.89823 13.0646 7.91232 13.0833C7.92171 13.0927 7.93111 13.1068 7.9405 13.1162C7.95459 13.1303 7.96398 13.1491 7.97807 13.1632C8.227 13.4638 8.55577 13.7503 8.91271 13.9241C9.10058 14.0227 9.48101 14.0696 9.62661 14.2012C9.7769 14.3327 9.87553 14.807 9.99295 14.9949C9.83326 15.0935 9.67827 15.2203 9.54676 15.3565C9.53737 15.3612 9.53267 15.3706 9.52328 15.3753C9.50919 15.3894 9.4998 15.3988 9.48571 15.4129C9.26966 15.6289 9.09119 15.8779 8.94089 16.1503C8.94089 16.155 8.9362 16.1597 8.9362 16.1597C8.88923 16.1972 8.86575 16.2442 8.86575 16.2959C8.85635 16.3194 8.84226 16.3428 8.83287 16.3663C8.83287 16.3663 8.83287 16.3663 8.83287 16.371C8.79999 16.4415 8.77181 16.5166 8.74363 16.5918C8.72015 16.6528 8.69197 16.7186 8.68258 16.7843C8.67788 16.8031 8.67318 16.8219 8.66849 16.8407C8.66379 16.8595 8.65909 16.8783 8.6544 16.897C8.6544 16.9017 8.6497 16.9111 8.6497 16.9158C8.645 16.9299 8.64031 16.944 8.64031 16.9581C8.64031 16.9628 8.64031 16.9628 8.64031 16.9675C8.61682 17.0708 8.60743 17.1788 8.57925 17.2822C8.57925 17.2869 8.57925 17.2869 8.57925 17.2869V17.2916C8.57925 17.2963 8.57925 17.301 8.57925 17.301V17.3104C8.55577 17.315 8.52759 17.3197 8.5041 17.3244C8.32563 17.3526 8.13306 17.3667 7.94989 17.3479H7.9452C7.92171 17.3479 7.90293 17.3432 7.87944 17.3432C7.87475 17.3432 7.87005 17.3432 7.86535 17.3432C7.67749 17.3197 7.48962 17.2728 7.31115 17.2023C7.22661 17.1695 7.14676 17.1319 7.06692 17.0896C7.02465 17.0614 6.98238 17.0379 6.94011 17.0192C6.91663 17.0051 6.89314 16.991 6.86966 16.9722C6.85087 16.9581 6.83209 16.9487 6.818 16.9346C6.818 16.9346 6.818 16.9346 6.8133 16.9346C6.76633 16.897 6.72406 16.8642 6.6771 16.8266C5.23991 15.6289 5.78473 13.0833 7.63991 12.6794C7.63052 12.6653 7.236 12.7687 7.17964 12.7828C7.33463 12.7405 7.48962 12.7123 7.63991 12.6794C7.64461 12.6841 6.60195 12.9049 7.63991 12.6794ZM6.36242 17.7518C6.52211 17.8599 6.83678 18.09 7.03404 18.09C7.31584 18.1933 7.63052 18.2638 7.93111 18.2779C8.0814 18.2873 8.25987 18.3013 8.41017 18.2685C8.52289 18.198 8.57925 18.1933 8.57925 18.2497C8.6544 18.7334 8.83757 19.3205 9.16633 19.6963C9.31193 19.8982 9.47631 20.0814 9.66418 20.2458L9.66888 20.2505C9.19921 20.5417 8.30684 21.3119 8.30684 21.9319C8.19882 21.9601 8.0814 21.9835 7.96868 21.9929C7.95929 21.9929 7.94989 21.9929 7.9405 21.9976C5.6861 22.2043 4.62935 19.1139 6.36242 17.7518C6.36712 17.7565 6.15107 17.9773 6.11819 17.9538C6.11819 17.9538 6.43287 17.7002 6.36242 17.7518C6.44226 17.8035 5.79882 18.198 6.36242 17.7518ZM7.19843 26.7178C6.01017 26.7178 5.09901 25.7738 4.95811 24.6231C4.89236 24.083 4.99569 23.5241 5.28218 23.0591C5.3996 22.8665 5.61565 22.5237 5.83639 22.4485C6.09471 22.3593 6.57377 22.6974 6.87905 22.8008C7.21721 22.8994 7.58825 22.9511 7.9405 22.9182C8.00156 22.9135 8.05792 22.9088 8.11897 22.9041C8.09549 23.3033 8.14715 23.7354 8.28336 24.1111C8.33502 24.2755 8.39608 24.454 8.48532 24.5996C8.60743 24.8391 8.76242 25.0927 8.95498 25.2853C9.18982 25.5577 9.218 25.5436 8.98316 25.8442C8.84696 26.018 8.69197 26.1683 8.51349 26.2951C8.12837 26.5722 7.66809 26.7178 7.19843 26.7178ZM13.5859 23.4677C13.5859 23.4724 13.5859 23.4724 13.5859 23.4677C13.2947 25.2477 11.1061 26.0556 9.78629 24.7968C9.19451 24.2286 8.84696 23.3925 9.06301 22.58C9.26966 21.8145 9.89901 20.9033 10.7585 20.7765C11.1859 20.6638 12.0501 20.6262 12.3976 20.9738C12.3976 20.9738 12.3976 20.9738 12.4023 20.9738C13.2853 21.4575 13.7409 22.5565 13.5906 23.4348C13.5953 23.3925 13.5953 23.4019 13.5859 23.4677C13.5859 23.4724 13.6047 23.3409 13.5859 23.4677ZM15.3331 23.416C15.0607 23.416 14.7882 23.3644 14.5346 23.2657C14.544 23.1389 14.5487 22.9933 14.5346 22.8665C14.5252 22.7303 14.5064 22.5941 14.483 22.4579C14.4783 22.4297 14.4736 22.4015 14.4642 22.3734C14.4642 22.3734 14.4642 22.3734 14.4642 22.3687C14.4595 22.3452 14.4548 22.317 14.4454 22.2935C14.4454 22.2888 14.4454 22.2888 14.4454 22.2888C14.328 21.8567 14.0931 21.1194 13.6939 20.8516C13.6751 20.8282 13.6564 20.8094 13.6376 20.7906C13.6282 20.7812 13.6188 20.7671 13.6094 20.7577C13.4685 20.6074 13.3088 20.4759 13.1444 20.3585C13.1444 20.3538 13.1491 20.3491 13.1491 20.3444C13.1538 20.3303 13.1585 20.3162 13.1632 20.3021C13.2055 20.1612 13.2712 20.0109 13.3464 19.8794C13.4497 19.6822 13.5859 19.499 13.7456 19.344C13.7597 19.3299 13.7691 19.3205 13.7832 19.3064C13.7973 19.2923 13.8066 19.283 13.8207 19.2736C13.8301 19.2642 13.8395 19.2548 13.8536 19.2454C13.8583 19.2407 13.863 19.236 13.8724 19.2313C13.8818 19.2219 13.8959 19.2125 13.9053 19.2031C14.0039 19.1139 14.1213 19.0387 14.2387 18.973C14.746 19.2923 15.319 19.452 15.9201 19.452C15.9201 19.4567 15.9201 19.4661 15.9201 19.4708C15.892 19.9405 15.9577 20.4102 16.1174 20.8516C16.2066 21.0959 16.4509 21.744 16.7092 21.8755C16.7139 21.8849 16.7233 21.8943 16.7327 21.899C16.7468 21.9178 16.7609 21.9319 16.7749 21.946C16.8689 22.0493 16.9675 22.1479 17.0755 22.2372C17.2775 22.3076 17.2916 22.4015 17.1272 22.5237C17.0567 22.6974 16.7984 22.8712 16.6528 22.9792C16.263 23.261 15.8074 23.416 15.3331 23.416ZM19.1139 22.0775C17.6861 22.0775 16.6387 20.6826 16.8548 19.3111C17.2728 19.1796 17.8035 18.9354 18.0806 18.5831C18.1135 18.5503 18.1464 18.5221 18.1746 18.4892C18.1792 18.4845 18.1839 18.4798 18.1886 18.4751C18.2309 18.4329 18.2732 18.3859 18.3108 18.3389C18.3248 18.3248 18.3342 18.3107 18.3483 18.2967C18.353 18.292 18.3577 18.2873 18.3624 18.2779C18.4329 18.1933 18.5268 18.0806 18.5785 17.982C18.6959 17.7988 18.8039 17.6015 18.8791 17.3996C18.8837 17.3855 18.8884 17.3761 18.8931 17.362C20.2035 17.2352 21.3495 18.3436 21.3965 19.6305C21.4434 20.8939 20.4149 22.0775 19.1139 22.0775Z"/><path xmlns="http://www.w3.org/2000/svg" fill="black" d="M24.4446 10.7492C24.191 10.7492 23.9844 10.5425 23.9844 10.2889C23.9844 10.0353 24.191 9.82861 24.4446 9.82861C24.6983 9.82861 24.9049 10.0353 24.9049 10.2889C24.9049 10.5425 24.6983 10.7492 24.4446 10.7492Z"/><path xmlns="http://www.w3.org/2000/svg" fill="black" d="M27.8027 11.8388C27.3894 10.1386 26.1542 8.68729 24.1252 7.51782C24.4164 7.07633 25.9241 4.18787 24.8532 4.0094C24.2004 3.90138 24.2051 5.03797 24.083 5.43719C23.8763 6.11821 23.571 6.77104 23.1296 7.33464C22.2748 8.45715 20.8517 9.0912 19.4568 9.0912C19.0622 9.06772 18.8227 9.56556 19.0857 9.86145C19.2689 10.0634 19.5789 10.0211 19.8278 10.0071C20.7296 9.95069 21.636 9.66419 22.4063 9.19453C21.5186 12.4916 23.7025 14.9573 26.3045 16.6247C26.3092 16.6294 26.3139 16.6294 26.3186 16.6341C26.3937 16.681 26.5018 16.7045 26.591 16.6951C26.5957 16.6951 26.6051 16.6951 26.6145 16.6904C26.6333 16.6904 26.6474 16.6857 26.6661 16.681C26.6943 16.6763 26.7225 16.6622 26.7507 16.6528C26.7554 16.6528 26.7554 16.6481 26.7601 16.6481C26.7648 16.6481 26.7648 16.6435 26.7695 16.6435C26.8352 16.6106 26.8916 16.5636 26.9339 16.5026C26.9339 16.5026 26.9386 16.4979 26.9386 16.4932C26.9902 16.4086 28.4086 14.3327 27.8027 11.8388C27.3894 10.1386 28.4086 14.3327 27.8027 11.8388ZM26.6521 15.0043C26.4078 14.22 26.1589 13.4356 25.8912 12.656C25.7644 12.2802 25.6047 11.3644 25.1115 11.308C24.3084 11.2188 24.7452 12.1769 24.8767 12.5433C25.1773 13.3793 25.4403 14.2341 25.708 15.0795C24.6701 14.2763 23.6791 13.2665 23.2845 11.9844C22.8994 10.7444 23.2094 9.49511 23.6744 8.32564C26.1166 9.73464 27.7652 12.1393 26.6521 15.0043C26.2669 13.7785 26.6521 15.0043 26.6521 15.0043Z"/>
	</symbol>
  <symbol viewBox="0 0 32 32" id="img-nut">
      <path fill="black" d="M25.8897 9.77338C25.7746 9.60552 25.5396 9.56715 25.3765 9.68225C25.2086 9.79736 25.1703 10.0324 25.2854 10.1954C26.5707 12.0228 27.2518 14.1235 27.2518 16.277C27.2518 19.0635 26.1055 21.759 24.0192 23.8741C22.446 25.4664 20.4221 26.6559 18.1679 27.3321C17.717 26.9676 17.4436 26.2434 17.3189 25.0492C17.7794 25.476 18.3933 25.7398 19.0647 25.7398C19.8465 25.7398 20.5803 25.3849 21.0647 24.7806C21.1271 24.7854 21.1894 24.7854 21.2518 24.7854C22.6667 24.7854 23.8225 23.6343 23.8225 22.2146C23.8225 21.9988 23.7986 21.7926 23.7458 21.5863C24.4221 21.3082 25.0216 20.8477 25.4628 20.2626C26 19.5528 26.283 18.7038 26.283 17.8118C26.283 16.9245 25.9952 16.0659 25.4676 15.3609C25.9808 14.8813 26.2782 14.205 26.2782 13.4856C26.2782 12.229 25.3861 11.1835 24.187 10.9628C24.1583 9.82134 23.3861 8.84772 22.3022 8.55036C21.9472 7.28417 20.7866 6.39209 19.4532 6.39209C18.7962 6.39209 18.1871 6.60791 17.6978 6.97242C17.9712 6.32494 18.3453 5.77818 18.7962 5.41847C20.9784 6.18106 22.9113 7.43285 24.3933 9.07314C24.5324 9.22662 24.7626 9.23621 24.9161 9.10192C25.0695 8.96763 25.0791 8.73261 24.9448 8.57914C22.7242 6.1283 19.5635 4.4976 16.048 4.0036C16.0144 3.9988 15.9808 3.9988 15.9424 4.0036C12.6523 4.46882 9.63549 5.94604 7.44844 8.16187C5.22302 10.4161 4 13.2986 4 16.277C4 19.2554 5.22302 22.1379 7.44844 24.3921C9.63549 26.6079 12.6523 28.0851 15.9472 28.5504C15.9664 28.5552 15.9808 28.5552 16 28.5552C16.0192 28.5552 16.0336 28.5552 16.0528 28.5504C19.3429 28.0851 22.3597 26.6079 24.5516 24.3921C26.7722 22.1379 28 19.2554 28 16.277C27.9904 13.9748 27.2662 11.7254 25.8897 9.77338ZM19.4532 7.13549C20.518 7.13549 21.4341 7.89329 21.6307 8.93405C21.6595 9.08273 21.7794 9.20264 21.9281 9.22662C22.7722 9.3753 23.3957 10.0803 23.4388 10.9341C22.8537 10.9916 22.307 11.2506 21.8849 11.6727C21.741 11.8165 21.741 12.0516 21.8849 12.1954C21.9568 12.2674 22.0528 12.3058 22.1439 12.3058C22.2398 12.3058 22.3309 12.2674 22.4029 12.1954C22.7482 11.8501 23.2086 11.6583 23.6978 11.6583C23.7074 11.6583 23.717 11.6583 23.7218 11.6535C23.741 11.6583 23.7554 11.6583 23.7746 11.6583C24.7578 11.7014 25.5252 12.5024 25.5252 13.4856C25.5252 13.994 25.3141 14.4688 24.9544 14.8141C24.211 14.1187 23.2326 13.735 22.2014 13.735C21.9952 13.735 21.8321 13.8981 21.8321 14.1043C21.8321 14.3106 21.9952 14.4736 22.2014 14.4736C23.0935 14.4736 23.9329 14.8189 24.5659 15.452C24.5851 15.4712 24.6043 15.4856 24.6235 15.5C24.6379 15.524 24.6523 15.5432 24.6667 15.5624C25.2326 16.1811 25.5396 16.9772 25.5396 17.8165C25.5396 18.5456 25.3094 19.241 24.8681 19.8261C24.5036 20.3058 24.0096 20.6847 23.458 20.9101C22.9976 20.1379 22.1679 19.6535 21.247 19.6535C20.5612 19.6535 19.9137 19.9221 19.4293 20.4065C19.2854 20.5504 19.2854 20.7854 19.4293 20.9293C19.5731 21.0731 19.8082 21.0731 19.952 20.9293C20.2974 20.5839 20.7578 20.3921 21.247 20.3921C21.9856 20.3921 22.6475 20.8285 22.9353 21.5096C23.0312 21.735 23.0791 21.9748 23.0791 22.2194C23.0791 23.1499 22.3837 23.9173 21.482 24.0324C21.5779 23.759 21.6307 23.4664 21.6307 23.1691C21.6307 22.9628 21.4676 22.7998 21.2614 22.7998C21.0552 22.7998 20.8921 22.9628 20.8921 23.1691C20.8921 23.5336 20.7866 23.8837 20.5851 24.1811C20.2446 24.6894 19.6739 24.9964 19.0647 24.9964C18.0576 24.9964 17.2326 24.1763 17.2326 23.1643C17.2326 22.6559 17.4388 22.1811 17.8082 21.8309C17.9472 21.7014 17.9616 21.4856 17.8465 21.3369C17.4436 20.8237 17.2326 20.205 17.2326 19.5528C17.2326 18.6511 17.6403 17.8165 18.3501 17.2602C18.3549 17.2554 18.3549 17.2554 18.3597 17.2506C18.8729 16.8525 19.4868 16.6415 20.1391 16.6415C20.3453 16.6415 20.5084 16.4784 20.5084 16.2722C20.5084 16.0659 20.3453 15.9029 20.1391 15.9029C19.4245 15.9029 18.7482 16.1043 18.1583 16.488C17.5731 15.8597 17.2374 15.0204 17.2374 14.1475C17.2374 13.2362 17.5923 12.3825 18.2302 11.735C18.2302 11.735 18.2302 11.7302 18.235 11.7302C18.8825 11.0779 19.7506 10.7134 20.6715 10.7134C20.8777 10.7134 21.0408 10.5504 21.0408 10.3441C21.0408 10.1379 20.8777 9.97482 20.6715 9.97482C19.6595 9.97482 18.7098 10.3297 17.952 10.982C17.5012 10.5647 17.2374 9.97482 17.2374 9.35132C17.2374 8.13309 18.2302 7.13549 19.4532 7.13549ZM4.73861 16.277C4.73861 13.4904 5.88489 10.795 7.97122 8.67986C9.39568 7.23621 11.1942 6.1235 13.1942 5.42326C13.6451 5.78297 14.024 6.32494 14.2926 6.97242C13.8034 6.61271 13.1942 6.39688 12.5372 6.39688C11.2038 6.39688 10.0432 7.28897 9.68825 8.55516C8.60432 8.85252 7.83213 9.82614 7.80336 10.9676C6.60432 11.193 5.71223 12.2386 5.71223 13.4904C5.71223 14.205 6.00959 14.8813 6.52278 15.3657C5.9952 16.0707 5.70743 16.9245 5.70743 17.8165C5.70743 17.9029 5.71223 17.994 5.71703 18.0803C5.73141 18.2818 5.90887 18.44 6.11031 18.4257C6.31175 18.4113 6.47002 18.2386 6.45564 18.0324C6.45084 17.9604 6.45084 17.8885 6.45084 17.8165C6.45084 16.982 6.76259 16.1811 7.32374 15.5624C7.34293 15.5432 7.35731 15.524 7.36691 15.5C7.38609 15.4856 7.40528 15.4712 7.42446 15.452C8.05755 14.8189 8.89688 14.4736 9.78897 14.4736C9.9952 14.4736 10.1583 14.3106 10.1583 14.1043C10.1583 13.8981 9.9952 13.735 9.78897 13.735C8.753 13.735 7.77938 14.1187 7.02158 14.8189C6.66187 14.4784 6.45084 13.9988 6.45084 13.4904C6.45084 12.5072 7.21823 11.7062 8.20144 11.6631C8.22062 11.6631 8.23501 11.6583 8.2542 11.6583C8.26379 11.6631 8.27338 11.6631 8.27818 11.6631C8.76739 11.6631 9.22782 11.8549 9.57314 12.2002C9.64508 12.2722 9.74101 12.3106 9.83213 12.3106C9.92806 12.3106 10.0192 12.2722 10.0911 12.2002C10.235 12.0564 10.235 11.8213 10.0911 11.6775C9.66906 11.2554 9.1223 10.9964 8.53717 10.9388C8.58034 10.0899 9.20384 9.3801 10.048 9.23141C10.2014 9.20743 10.3165 9.08753 10.3453 8.93885C10.5468 7.89808 11.4628 7.14029 12.5228 7.14029C13.7458 7.14029 14.7434 8.13789 14.7434 9.36091C14.7434 9.98441 14.4796 10.5695 14.0288 10.9916C13.271 10.3393 12.3213 9.98441 11.3094 9.98441C11.1031 9.98441 10.94 10.1475 10.94 10.3537C10.94 10.56 11.1031 10.723 11.3094 10.723C12.2302 10.723 13.0983 11.0827 13.7458 11.7398C13.7458 11.7398 13.7458 11.7446 13.7506 11.7446C14.3933 12.3921 14.7434 13.2506 14.7434 14.1571C14.7434 15.03 14.4077 15.8693 13.813 16.5024C13.223 16.1187 12.5468 15.9173 11.8321 15.9173C11.6259 15.9173 11.4628 16.0803 11.4628 16.2866C11.4628 16.4928 11.6259 16.6559 11.8321 16.6559C12.4844 16.6559 13.0983 16.8669 13.6115 17.265C13.6163 17.2698 13.6163 17.2698 13.6211 17.2746C14.3309 17.8309 14.7386 18.6655 14.7386 19.5671C14.7386 20.2194 14.5276 20.8381 14.1247 21.3513C14.0096 21.5 14.024 21.7158 14.1631 21.8453C14.5324 22.1954 14.7386 22.6703 14.7386 23.1787C14.7386 24.1859 13.9185 25.0108 12.9065 25.0108C12.2926 25.0108 11.7266 24.7038 11.3861 24.1954C11.1847 23.8933 11.0791 23.5432 11.0791 23.1835C11.0791 22.9772 10.9161 22.8141 10.7098 22.8141C10.5036 22.8141 10.3405 22.9772 10.3405 23.1835C10.3405 23.4808 10.3933 23.7734 10.4892 24.0468C9.59233 23.9317 8.89209 23.1643 8.89209 22.2338C8.89209 21.9892 8.94005 21.7494 9.03597 21.524C9.32374 20.8429 9.98561 20.4065 10.7242 20.4065C11.2134 20.4065 11.6739 20.5983 12.0192 20.9436C12.1631 21.0875 12.3981 21.0875 12.542 20.9436C12.6859 20.7998 12.6859 20.5647 12.542 20.4209C12.0576 19.9365 11.4101 19.6679 10.7242 19.6679C9.80815 19.6679 8.97362 20.1523 8.51319 20.9245C7.7554 20.6127 7.1271 20.0324 6.76259 19.2842C6.67146 19.1019 6.45084 19.0252 6.26858 19.1115C6.08633 19.2026 6.00959 19.4233 6.09592 19.6055C6.53717 20.512 7.29976 21.2266 8.22542 21.6055C8.17266 21.8118 8.14868 22.018 8.14868 22.2338C8.14868 23.6487 9.29976 24.8046 10.7194 24.8046C10.7818 24.8046 10.8441 24.8046 10.9065 24.7998C11.3909 25.4041 12.1247 25.759 12.9065 25.759C13.5827 25.759 14.1966 25.4952 14.6523 25.0683C14.5276 26.2626 14.2542 26.982 13.8034 27.3513C11.5492 26.6751 9.52518 25.4856 7.95204 23.8933C5.88969 21.759 4.73861 19.0635 4.73861 16.277ZM15.9952 27.8118C15.5348 27.7446 15.0839 27.6583 14.6379 27.5528C15.2422 26.7758 15.4964 25.4233 15.4964 23.1691C15.4964 22.5743 15.2854 21.994 14.9113 21.5384C15.295 20.9484 15.4964 20.2674 15.4964 19.5576C15.4964 18.5695 15.1031 17.6391 14.4077 16.958C15.1031 16.1954 15.4964 15.1882 15.4964 14.1475C15.4964 13.1787 15.1655 12.2578 14.5612 11.5144C15.1511 10.958 15.4964 10.1763 15.4964 9.35611C15.4964 8.42566 15.3141 7.5048 14.9736 6.68465C14.7194 6.08034 14.3933 5.56715 14.0096 5.16906C14.6571 4.98201 15.3237 4.84293 16 4.74221C16.6811 4.84293 17.3429 4.98201 17.9904 5.16906C17.6067 5.56715 17.2758 6.08513 17.0264 6.68465C16.6859 7.5048 16.5036 8.42566 16.5036 9.35611C16.5036 10.1763 16.8489 10.958 17.4388 11.5144C16.8345 12.2578 16.5036 13.1787 16.5036 14.1475C16.5036 15.1882 16.8969 16.1954 17.5923 16.958C16.8969 17.6391 16.5036 18.5695 16.5036 19.5576C16.5036 20.2722 16.705 20.9484 17.0887 21.5384C16.7146 21.994 16.5036 22.5743 16.5036 23.1691C16.5036 25.4185 16.7578 26.771 17.3621 27.5528C16.9065 27.6583 16.4556 27.7446 15.9952 27.8118Z"/><defs xmlns="http://www.w3.org/2000/svg"><filter id="filter0_dd" width="40" height="40" x="-4" y="0" color-interpolation-filters="sRGB" filterUnits="userSpaceOnUse"><feFlood flood-opacity="0" result="BackgroundImageFix"/><feColorMatrix in="SourceAlpha" values="0 0 0 0 0 0 0 0 0 0 0 0 0 0 0 0 0 0 127 0"/><feOffset dy="4"/><feGaussianBlur stdDeviation="2"/><feColorMatrix values="0 0 0 0 0 0 0 0 0 0 0 0 0 0 0 0 0 0 0.25 0"/><feBlend in2="BackgroundImageFix" result="effect1_dropShadow"/><feColorMatrix in="SourceAlpha" values="0 0 0 0 0 0 0 0 0 0 0 0 0 0 0 0 0 0 127 0"/><feOffset dy="4"/><feGaussianBlur stdDeviation="2"/><feColorMatrix values="0 0 0 0 0 0 0 0 0 0 0 0 0 0 0 0 0 0 0.25 0"/><feBlend in2="effect1_dropShadow" result="effect2_dropShadow"/><feBlend in="SourceGraphic" in2="effect2_dropShadow" result="shape"/></filter></defs>
	</symbol>
  <symbol viewBox="0 0 32 32" id="img-almond">
			<path xmlns="http://www.w3.org/2000/svg" fill="black" d="M15.268 23.194C15.0196 23.119 14.7571 23.2597 14.6868 23.5081C14.0634 25.5986 12.0995 27.061 9.91524 27.061C7.16855 27.0563 4.93744 24.8252 4.93744 22.0832C4.93744 18.4037 6.23111 14.818 8.58408 11.9869L9.37621 11.0354C9.50746 10.8761 9.70432 10.7823 9.91056 10.7823C10.1168 10.7823 10.3137 10.8761 10.4449 11.0354L11.237 11.9869C13.0322 14.1477 14.2228 16.7538 14.6774 19.524C14.7196 19.7771 14.9587 19.9505 15.2165 19.9083C15.4696 19.8661 15.643 19.6271 15.6008 19.3693C15.118 16.4351 13.8572 13.6743 11.9589 11.387L11.1714 10.4308C10.8621 10.0558 10.4027 9.84021 9.91524 9.84021C9.42777 9.84021 8.96843 10.0558 8.65907 10.4308L7.86694 11.3823C5.37335 14.3821 4 18.1834 4 22.0832C4 25.3455 6.65295 27.9984 9.91524 27.9984C11.2136 27.9984 12.4463 27.5859 13.4822 26.8032C14.4806 26.0485 15.2305 24.9705 15.5868 23.7799C15.6571 23.5268 15.5164 23.2643 15.268 23.194Z"/><path xmlns="http://www.w3.org/2000/svg" fill="black" d="M9.69025 15.8539C9.46058 15.9758 9.37621 16.2617 9.49808 16.4867C10.2715 17.9257 10.7449 19.5474 10.8714 21.1739C10.8902 21.4176 11.0964 21.6051 11.3401 21.6051C11.3542 21.6051 11.3636 21.6051 11.3776 21.6051C11.6354 21.5864 11.8276 21.3614 11.8089 21.1036C11.6729 19.3224 11.1714 17.621 10.3277 16.0461C10.2058 15.8164 9.91992 15.732 9.69025 15.8539Z"/><path xmlns="http://www.w3.org/2000/svg" fill="black" d="M9.91524 24.0144C10.173 24.0144 10.384 23.8035 10.384 23.5457C10.384 23.2879 10.173 23.077 9.91524 23.077C9.36684 23.077 8.91687 22.6317 8.91687 22.0786C8.91687 21.4927 8.95906 20.9021 9.04811 20.3256C9.08561 20.0678 8.91218 19.8287 8.65439 19.7912C8.39659 19.7537 8.15754 19.9272 8.12005 20.1849C8.0263 20.8083 7.97943 21.4458 7.97943 22.0786C7.97943 23.1473 8.84656 24.0144 9.91524 24.0144Z"/><path xmlns="http://www.w3.org/2000/svg" fill="black" d="M9.91525 26.0064C12.0807 26.0064 13.8384 24.244 13.8384 22.0832C13.8384 21.8254 13.6275 21.6145 13.3697 21.6145C13.1119 21.6145 12.901 21.8254 12.901 22.0832C12.901 23.7284 11.5605 25.069 9.91525 25.069C9.65746 25.069 9.44653 25.2799 9.44653 25.5377C9.44653 25.7955 9.65746 26.0064 9.91525 26.0064Z"/><path xmlns="http://www.w3.org/2000/svg" fill="black" d="M12.9713 19.2053C13.0088 19.2053 13.0463 19.2006 13.0838 19.1912C13.3369 19.1303 13.4916 18.8772 13.4306 18.6241C13.1072 17.2835 12.5963 15.9946 11.9167 14.7946C11.7901 14.5697 11.5042 14.49 11.2792 14.6165C11.0542 14.7431 10.9745 15.029 11.1011 15.254C11.7385 16.3789 12.2166 17.5835 12.5213 18.8397C12.5682 19.06 12.7604 19.2053 12.9713 19.2053Z"/><path xmlns="http://www.w3.org/2000/svg" fill="black" d="M8.11068 15.4039C7.87632 15.2914 7.59977 15.3851 7.48259 15.6195C6.50766 17.6256 5.99207 19.8567 5.99207 22.0785C5.99207 22.3363 6.20299 22.5472 6.46079 22.5472C6.71858 22.5472 6.9295 22.3363 6.9295 22.0785C6.9295 19.9973 7.41229 17.9069 8.32629 16.032C8.43878 15.7976 8.34035 15.5211 8.11068 15.4039Z"/><path xmlns="http://www.w3.org/2000/svg" fill="black" d="M27.9938 17.2601L27.8813 16.0273C27.525 12.1463 25.8095 8.49033 23.0534 5.72958C20.7473 3.42347 16.9976 3.42347 14.6915 5.72958C12.3854 8.03568 12.3854 11.7854 14.6915 14.0915C17.4476 16.8476 21.1036 18.5631 24.9893 18.924L26.222 19.0365C26.2736 19.0412 26.3251 19.0412 26.372 19.0412C26.8032 19.0412 27.2157 18.8725 27.525 18.5631C27.8625 18.221 28.0359 17.7429 27.9938 17.2601ZM26.8548 17.9022C26.7095 18.0475 26.5032 18.1225 26.297 18.1038L25.0643 17.9913C21.3989 17.6538 17.9491 16.032 15.3477 13.4306C13.4072 11.4901 13.4072 8.33097 15.3477 6.39047C16.2898 5.44834 17.5366 4.93275 18.8678 4.93275C20.1989 4.93275 21.4457 5.44834 22.3879 6.39047C24.9893 8.99187 26.611 12.4463 26.9485 16.107L27.061 17.3398C27.0751 17.5507 27.0048 17.7569 26.8548 17.9022Z"/><path xmlns="http://www.w3.org/2000/svg" fill="black" d="M18.8631 8.91686C19.1303 8.91686 19.3787 9.01998 19.5662 9.20746C19.9787 9.61994 20.3677 10.0699 20.7146 10.5386C20.8083 10.6652 20.9489 10.7308 21.0942 10.7308C21.1927 10.7308 21.2864 10.7027 21.3708 10.6371C21.577 10.4824 21.6239 10.1918 21.4692 9.98085C21.0942 9.46995 20.6771 8.98717 20.2318 8.54188C19.8662 8.17628 19.3834 7.97473 18.8631 7.97473C18.3475 7.97473 17.8601 8.17628 17.4945 8.54188C17.3117 8.72468 17.3117 9.01998 17.4945 9.20278C17.6773 9.38558 17.9726 9.38558 18.1554 9.20278C18.3475 9.01998 18.6006 8.91686 18.8631 8.91686Z"/><path xmlns="http://www.w3.org/2000/svg" fill="black" d="M23.1144 13.576C21.5489 13.1026 20.0677 12.2917 18.8256 11.2324C18.6287 11.0637 18.3334 11.0871 18.1647 11.2839C17.996 11.4808 18.0194 11.7761 18.2163 11.9448C19.5709 13.1073 21.127 13.9557 22.8425 14.4759C22.8894 14.49 22.9316 14.4947 22.9785 14.4947C23.18 14.4947 23.3675 14.3634 23.4284 14.1619C23.4987 13.9088 23.3581 13.651 23.1144 13.576Z"/><path xmlns="http://www.w3.org/2000/svg" fill="black" d="M21.6379 7.13576C21.4551 6.95296 21.1598 6.95296 20.977 7.13576C20.7942 7.31856 20.7942 7.61385 20.977 7.79665C22.4488 9.26843 23.5831 11.0871 24.2674 13.0604C24.333 13.2525 24.5158 13.3744 24.7127 13.3744C24.7643 13.3744 24.8158 13.365 24.8674 13.3463C25.1111 13.2619 25.2424 12.9948 25.158 12.751C24.4268 10.6512 23.2128 8.70597 21.6379 7.13576Z"/><path xmlns="http://www.w3.org/2000/svg" fill="black" d="M22.8566 15.5726C21.6098 15.2305 20.4193 14.7149 19.3178 14.0399C19.0975 13.904 18.8069 13.9743 18.6756 14.1946C18.5397 14.4149 18.61 14.7055 18.8303 14.8368C20.0068 15.5586 21.2817 16.107 22.6082 16.4726C22.6504 16.482 22.6925 16.4913 22.7347 16.4913C22.941 16.4913 23.1285 16.3554 23.1847 16.1492C23.2503 15.8961 23.105 15.6383 22.8566 15.5726Z"/><path xmlns="http://www.w3.org/2000/svg" fill="black" d="M16.7539 7.13576C16.5711 6.95296 16.2758 6.95296 16.093 7.13576C14.565 8.66378 14.565 11.1574 16.093 12.6854C16.1867 12.7791 16.3039 12.8213 16.4258 12.8213C16.5476 12.8213 16.6648 12.7745 16.7586 12.6854C16.9414 12.5026 16.9414 12.2073 16.7586 12.0245C15.5961 10.8621 15.5961 8.96376 16.7586 7.80134C16.9367 7.61854 16.9367 7.31856 16.7539 7.13576Z"/><path xmlns="http://www.w3.org/2000/svg" fill="black" d="M15.3524 21.0754C15.2305 21.0754 15.1087 21.127 15.0196 21.2114C14.9305 21.3004 14.8837 21.4176 14.8837 21.5442C14.8837 21.666 14.9352 21.7879 15.0196 21.877C15.1087 21.966 15.2258 22.0129 15.3524 22.0129C15.4789 22.0129 15.5961 21.9613 15.6852 21.877C15.7742 21.7879 15.8211 21.6707 15.8211 21.5442C15.8211 21.4176 15.7695 21.3004 15.6852 21.2114C15.5961 21.1223 15.4743 21.0754 15.3524 21.0754Z"/>
	</symbol>
  <symbol viewBox="0 0 32 32" id="washing">
			<path xmlns="http://www.w3.org/2000/svg" fill="black" d="M8.48126 11.45C8.74015 11.45 8.95001 11.2401 8.95001 10.9812C8.95001 10.7223 8.74015 10.5125 8.48126 10.5125C8.22238 10.5125 8.01251 10.7223 8.01251 10.9812C8.01251 11.2401 8.22238 11.45 8.48126 11.45Z"/><path xmlns="http://www.w3.org/2000/svg" fill="black" d="M11.4875 11.45C11.7464 11.45 11.9562 11.2401 11.9562 10.9812C11.9562 10.7223 11.7464 10.5125 11.4875 10.5125C11.2286 10.5125 11.0187 10.7223 11.0187 10.9812C11.0187 11.2401 11.2286 11.45 11.4875 11.45Z"/><path xmlns="http://www.w3.org/2000/svg" fill="black" d="M9.98126 13.4187C10.2401 13.4187 10.45 13.2088 10.45 12.95C10.45 12.6911 10.2401 12.4812 9.98126 12.4812C9.72238 12.4812 9.51251 12.6911 9.51251 12.95C9.51251 13.2088 9.72238 13.4187 9.98126 13.4187Z"/><path xmlns="http://www.w3.org/2000/svg" fill="black" d="M12.9875 13.4187C13.2464 13.4187 13.4562 13.2088 13.4562 12.95C13.4562 12.6911 13.2464 12.4812 12.9875 12.4812C12.7286 12.4812 12.5187 12.6911 12.5187 12.95C12.5187 13.2088 12.7286 13.4187 12.9875 13.4187Z"/><path xmlns="http://www.w3.org/2000/svg" fill="black" d="M3.9375 13.4187C4.19638 13.4187 4.40625 13.2088 4.40625 12.95C4.40625 12.6911 4.19638 12.4812 3.9375 12.4812C3.67862 12.4812 3.46875 12.6911 3.46875 12.95C3.46875 13.2088 3.67862 13.4187 3.9375 13.4187Z"/><path xmlns="http://www.w3.org/2000/svg" fill="black" d="M6.97498 13.4187C7.23386 13.4187 7.44373 13.2088 7.44373 12.95C7.44373 12.6911 7.23386 12.4812 6.97498 12.4812C6.71609 12.4812 6.50623 12.6911 6.50623 12.95C6.50623 13.2088 6.71609 13.4187 6.97498 13.4187Z"/><path xmlns="http://www.w3.org/2000/svg" fill="black" d="M9.98126 9.47498C10.2401 9.47498 10.45 9.26511 10.45 9.00623C10.45 8.74734 10.2401 8.53748 9.98126 8.53748C9.72238 8.53748 9.51251 8.74734 9.51251 9.00623C9.51251 9.26511 9.72238 9.47498 9.98126 9.47498Z"/><path xmlns="http://www.w3.org/2000/svg" fill="black" d="M6.97498 9.47498C7.23386 9.47498 7.44373 9.26511 7.44373 9.00623C7.44373 8.74734 7.23386 8.53748 6.97498 8.53748C6.71609 8.53748 6.50623 8.74734 6.50623 9.00623C6.50623 9.26511 6.71609 9.47498 6.97498 9.47498Z"/><path xmlns="http://www.w3.org/2000/svg" fill="black" d="M5.50623 11.45C5.76511 11.45 5.97497 11.2401 5.97497 10.9812C5.97497 10.7223 5.76511 10.5125 5.50623 10.5125C5.24734 10.5125 5.03748 10.7223 5.03748 10.9812C5.03748 11.2401 5.24734 11.45 5.50623 11.45Z"/><path xmlns="http://www.w3.org/2000/svg" fill="black" d="M30.525 14.0188H26.0563C25.7938 14.0188 25.5875 14.2312 25.5875 14.4875C25.5875 14.75 25.8 14.9563 26.0563 14.9563H30.525C30.8188 14.9563 31.0563 15.1938 31.0563 15.4875V15.6438C31.0563 15.9062 30.8688 16.125 30.6125 16.1687L16.4188 18.5312C16.1938 18.5688 16.025 18.7625 16.025 18.9937V21.5C16.025 23.45 14.4375 25.0375 12.4875 25.0375H4.46875C2.51875 25.0375 0.93125 23.45 0.93125 21.5V14.9563H23.7438C24.0063 14.9563 24.2125 14.7438 24.2125 14.4875C24.2125 14.225 24 14.0188 23.7438 14.0188H16.8063C16.5375 13.375 15.8375 11.8063 14.7438 10.2125C12.8563 7.45625 10.6875 6 8.48125 6C6.275 6 4.1 7.45625 2.20625 10.2125C0.8125 12.2375 0.05625 14.2375 0.025 14.3188V14.325C0.01875 14.3375 0.01875 14.35 0.0125 14.3625C0.0125 14.3688 0.0125 14.3687 0.00625 14.375C0 14.3875 0 14.4 0 14.4187C0 14.425 0 14.425 0 14.4312C0 14.45 0 14.4688 0 14.4812V21.5C0 23.9688 2.00625 25.975 4.475 25.975H12.4938C14.9625 25.975 16.9688 23.9688 16.9688 21.5V19.3938L30.7688 17.0938C31.4813 16.975 32 16.3625 32 15.6438V15.4875C31.9938 14.675 31.3313 14.0188 30.525 14.0188ZM8.48125 6.9375C12.3125 6.9375 14.9688 12.1687 15.7938 14.0125H1.16875C1.9875 12.1687 4.64375 6.9375 8.48125 6.9375Z"/>
	</symbol>
  <symbol viewBox="0 0 32 32" id="apitherapy">
			<path xmlns="http://www.w3.org/2000/svg" fill="black" d="M4.18761 25.5505C7.66777 27.7268 7.43795 27.6142 7.60211 27.6142C7.76627 27.6142 7.5599 27.708 10.8056 25.6865C14.0559 27.7174 13.8495 27.6142 14.009 27.6142C14.1685 27.6142 14.009 27.6846 16.6261 26.0477C16.8138 25.9304 16.87 25.6818 16.7528 25.4942C16.6355 25.3066 16.3869 25.2503 16.1993 25.3676L14.0043 26.7418L11.2042 24.9924V22.2345L12.6676 21.3199C12.8552 21.2027 12.9115 20.9541 12.7942 20.7665C12.677 20.5789 12.4284 20.5226 12.2408 20.6398L10.8056 21.5404L8.00547 19.7909V17.033L10.8056 15.2836C12.3674 16.2591 12.2642 16.2122 12.3768 16.231C12.5644 16.2638 12.752 16.1653 12.8224 15.9871C12.8927 15.8089 12.827 15.6072 12.6676 15.504L11.2042 14.5894V11.8315L14.0043 10.0821L16.8044 11.8315V12.4084C16.8044 12.6289 16.9826 12.8071 17.203 12.8071C17.4235 12.8071 17.6017 12.6289 17.6017 12.4084V11.8315L20.4018 10.0821L23.2019 11.8315V14.8098C23.2019 15.0303 23.3801 15.2085 23.6005 15.2085C23.821 15.2085 23.9992 15.0303 23.9992 14.8098V11.6064C23.9992 11.4704 23.9289 11.3391 23.8116 11.2687L20.7958 9.38323V6.40023C20.7958 6.26422 20.7254 6.13289 20.6082 6.06254L17.4188 4.0598C17.2875 3.98007 17.1233 3.98007 16.9967 4.0598L14.009 5.92652L11.0166 4.0598C10.8853 3.98007 10.7211 3.98007 10.5945 4.0598L7.39105 6.06254C7.27379 6.13758 7.20344 6.26422 7.20344 6.40023V9.37854L4.18761 11.264C4.07035 11.3391 4 11.4657 4 11.6017V14.8052C4 14.9412 4.07035 15.0725 4.18761 15.1429L7.20344 17.0283V19.7862L4.18761 21.6717C4.07035 21.7467 4 21.8734 4 22.0094V25.2128C4 25.3488 4.07035 25.4755 4.18761 25.5505ZM17.2077 4.87121L20.0078 6.62068V9.37854L17.2077 11.128L14.4077 9.37854V6.62068L17.2077 4.87121ZM10.8056 4.87121L13.6056 6.62068V9.37854L10.8056 11.128L8.00547 9.37854V6.62068L10.8056 4.87121ZM4.80203 11.8269L7.60211 10.0774L10.4022 11.8269V14.5847L7.60211 16.3342L4.80203 14.5847V11.8269ZM4.80203 22.2298L7.60211 20.4804L10.4022 22.2298V24.9877L7.60211 26.7372L4.80203 24.9877V22.2298Z"/><path xmlns="http://www.w3.org/2000/svg" fill="black" d="M22.4092 16.0105V15.6072C22.4092 14.9083 22.0997 14.2423 21.5697 13.7827L21.9684 12.9806C22.0668 12.7836 21.9824 12.5444 21.7854 12.4459C21.5884 12.3474 21.3492 12.4272 21.2507 12.6242L20.8802 13.3699C20.3221 13.1495 19.6983 13.1495 19.1354 13.3699L18.7649 12.6242C18.7039 12.4928 18.5726 12.4084 18.4319 12.399C18.2865 12.3896 18.1505 12.46 18.0708 12.5773C17.991 12.6992 17.9816 12.8493 18.0473 12.9806L18.446 13.7827C17.9113 14.2376 17.6017 14.9036 17.6017 15.6072V16.0105C17.2359 16.0058 16.8419 16.0058 16.401 16.0058C14.2763 16.0058 11.9969 16.972 11.9969 18.4072C11.9969 20.1332 15.2472 21.0385 16.8654 20.7664C16.8278 21.0854 16.7997 21.5216 16.7997 21.8124C16.7997 24.6124 18.0004 26.8497 19.5998 27.1733V27.6189C19.5998 27.8393 19.778 28.0176 19.9985 28.0176C20.2189 28.0176 20.3971 27.8393 20.3971 27.6189V27.1686C21.9965 26.845 23.1972 24.6077 23.1972 21.8077C23.1972 21.5216 23.1691 21.0807 23.1315 20.7664C24.7684 21.0385 28 20.1239 28 18.4072C28 16.972 25.7252 16.0058 23.5959 16.0058C23.1925 16.0058 22.7845 16.0058 22.4092 16.0105ZM18.4085 15.6072C18.4085 14.7207 19.1261 14.0078 20.0078 14.0078C20.8943 14.0078 21.6072 14.7254 21.6072 15.6072V16.0293C21.0678 16.0199 20.5238 16.0996 20.0078 16.2591C19.4919 16.0903 18.9478 16.0152 18.4038 16.0293V15.6072H18.4085ZM20.0125 18.1587C20.2001 18.5339 20.43 18.8856 20.702 19.2046H19.3184C19.5857 18.8856 19.8202 18.5339 20.0125 18.1587ZM12.8036 18.4072C12.8036 17.6849 14.464 16.8079 16.4057 16.8079C17.2078 16.8079 19.0979 16.7938 19.5951 16.9533C19.4591 17.9148 18.0614 20.0113 16.4057 20.0113C14.4686 20.0066 12.8036 19.1295 12.8036 18.4072ZM18.4929 20.0066H21.5181C21.762 20.1989 22.0246 20.3631 22.3014 20.4991C22.3154 20.6023 22.3295 20.7055 22.3436 20.8086H19.6092C19.3887 20.8086 19.2105 20.9869 19.2105 21.2073C19.2105 21.4278 19.3887 21.606 19.6092 21.606H22.3999C22.4186 21.8733 22.4139 22.1407 22.3858 22.408H17.6299C17.6017 22.1407 17.597 21.8733 17.6158 21.606H18.0051C18.2255 21.606 18.4038 21.4278 18.4038 21.2073C18.4038 20.9869 18.2255 20.8086 18.0051 20.8086H17.6721C17.6862 20.7008 17.7002 20.5976 17.7143 20.4897C17.9957 20.3584 18.2537 20.1989 18.4929 20.0066ZM18.2068 24.8094H20.0078C20.2283 24.8094 20.4065 24.6312 20.4065 24.4108C20.4065 24.1903 20.2283 24.0121 20.0078 24.0121H17.9113C17.8362 23.7494 17.7753 23.4821 17.7284 23.21H22.292C22.2451 23.4821 22.1841 23.7494 22.1091 24.0121H21.6119C21.3915 24.0121 21.2132 24.1903 21.2132 24.4108C21.2132 24.6312 21.3915 24.8094 21.6119 24.8094H21.8136C20.838 26.9435 19.1823 26.9435 18.2068 24.8094ZM27.2121 18.4072C27.2121 19.4016 24.2384 20.4053 22.8126 19.8518C21.6213 19.289 20.7442 18.229 20.4206 16.9533C20.9975 16.7797 22.7282 16.8079 23.6099 16.8032C25.5517 16.8079 27.2121 17.6849 27.2121 18.4072Z"/>
	</symbol>
  <symbol viewBox="0 0 32 32" id="beans">
			<path xmlns="http://www.w3.org/2000/svg" fill="black" d="M11.3672 3.05625C11.2031 2.85 10.9031 2.81719 10.6969 2.98125C10.4484 3.17813 10.1531 3.28594 9.83438 3.28594C9.51563 3.28594 9.22032 3.18282 8.97188 2.98125C8.76563 2.81719 8.46563 2.85 8.30157 3.05625C8.1375 3.2625 8.17032 3.5625 8.37657 3.72656C8.78907 4.05938 9.30938 4.2375 9.83907 4.2375C10.3688 4.2375 10.8891 4.05469 11.3016 3.72656C11.4984 3.5625 11.5313 3.2625 11.3672 3.05625Z"/><path xmlns="http://www.w3.org/2000/svg" fill="black" d="M23.6531 9.80156C23.2687 8.74688 22.6031 7.84219 21.7265 7.18594C21.1031 6.72188 20.3953 6.40313 19.6312 6.23906C19.7953 4.73438 19.3265 3.17344 18.3468 1.9875C17.2875 0.707813 15.764 0 14.0578 0H13.7812C12.5859 0 11.4281 0.421875 10.4297 1.22344C10.2562 1.35938 10.05 1.43438 9.82966 1.43438C9.60935 1.43438 9.4031 1.35938 9.22966 1.22344C8.23591 0.421875 7.0781 0 5.88279 0H5.60623C4.37342 0 3.22029 0.375 2.27342 1.07813C1.39217 1.73438 0.726543 2.63438 0.346856 3.69375C-0.0328314 4.74375 -0.103144 5.85938 0.154668 6.91875C0.426543 8.0625 1.06873 9.07969 2.01092 9.86719C2.7281 10.4672 3.5156 10.9828 4.34998 11.4C4.31717 11.9484 4.36404 12.4922 4.4906 13.0266C4.76248 14.1703 5.40467 15.1875 6.34685 15.975C8.53591 17.8031 11.3156 18.8063 14.1703 18.8063C17.025 18.8063 19.8047 17.7984 21.9937 15.975C22.9359 15.1875 23.5781 14.1703 23.85 13.0266C24.1031 11.9672 24.0375 10.8516 23.6531 9.80156ZM4.49998 10.4016C3.83435 10.0453 3.20623 9.61875 2.62029 9.13125C0.792168 7.60781 0.712481 5.48906 1.24217 4.01719C1.77654 2.53594 3.20623 0.95625 5.60154 0.95625H5.8781C6.8531 0.95625 7.80466 1.30781 8.62966 1.96875C8.96716 2.24063 9.39373 2.39063 9.82498 2.39063C10.2562 2.39063 10.6828 2.24063 11.0203 1.96875C11.8453 1.30313 12.7968 0.95625 13.7718 0.95625H14.0484C15.464 0.95625 16.725 1.5375 17.6015 2.59688C18.4172 3.58125 18.8015 4.87031 18.675 6.1125C18.5812 6.10781 18.4828 6.10313 18.3843 6.10313H18.1078C16.9125 6.10313 15.7547 6.525 14.7562 7.32656C14.5828 7.4625 14.3765 7.5375 14.1562 7.5375C13.9359 7.5375 13.7297 7.4625 13.5562 7.32656C12.5578 6.525 11.4 6.10313 10.2047 6.10313H9.9281C8.69529 6.10313 7.54685 6.47813 6.59529 7.18125C5.71404 7.8375 5.04842 8.7375 4.66873 9.79688C4.60779 9.99844 4.54685 10.2 4.49998 10.4016ZM21.3797 15.2391C19.364 16.9219 16.8 17.85 14.1703 17.85C11.5406 17.85 8.97185 16.9219 6.95623 15.2391C5.1281 13.7156 5.04842 11.5969 5.5781 10.125C6.11248 8.64375 7.54216 7.06406 9.93748 7.06406H10.214C11.189 7.06406 12.1406 7.41563 12.9656 8.07656C13.3031 8.34844 13.7297 8.49844 14.1609 8.49844C14.5922 8.49844 15.0187 8.34844 15.3562 8.07656C16.1812 7.41094 17.1328 7.06406 18.1078 7.06406H18.3843C20.7797 7.06406 22.2093 8.64844 22.7437 10.125C23.2875 11.5969 23.2078 13.7156 21.3797 15.2391Z"/><path xmlns="http://www.w3.org/2000/svg" fill="black" d="M15.6234 9.09849C15.4593 8.89224 15.1593 8.85943 14.9531 9.02349C14.7047 9.22037 14.4093 9.32818 14.0906 9.32818C13.7718 9.32818 13.4765 9.22505 13.2281 9.02349C13.0219 8.85943 12.7219 8.89224 12.5578 9.09849C12.3937 9.30474 12.4265 9.60474 12.6328 9.7688C13.0453 10.1016 13.5656 10.2797 14.0953 10.2797C14.625 10.2797 15.1453 10.0969 15.5578 9.7688C15.7593 9.60474 15.7922 9.30474 15.6234 9.09849Z"/><path xmlns="http://www.w3.org/2000/svg" fill="black" d="M19.3171 15.4453C19.1953 15.2109 18.9093 15.1172 18.6749 15.239C17.2734 15.9562 15.7593 16.3219 14.1703 16.3219C13.9078 16.3219 13.6921 16.5375 13.6921 16.8C13.6921 17.0625 13.9078 17.2781 14.1703 17.2781C15.9093 17.2781 17.5734 16.8797 19.1109 16.0875C19.3453 15.9703 19.4343 15.6797 19.3171 15.4453Z"/><path xmlns="http://www.w3.org/2000/svg" fill="black" d="M21.1688 14.0953C21 13.8937 20.7 13.8656 20.4938 14.0344C20.3813 14.1281 20.2688 14.2172 20.1563 14.3062C19.9453 14.4656 19.9078 14.7656 20.0672 14.9765C20.1609 15.0984 20.3016 15.164 20.4469 15.164C20.55 15.164 20.6484 15.1312 20.7375 15.0656C20.8641 14.9719 20.9859 14.8687 21.1078 14.7703C21.3094 14.5969 21.3375 14.2969 21.1688 14.0953Z"/>
	</symbol>
  <symbol viewBox="0 0 46 46" id="bar">
			<path xmlns="http://www.w3.org/2000/svg" fill="white" d="M44.6903 7.1641L38.8069 1.27893C37.9858 0.457505 36.8943 0 35.7301 0C34.5659 0 33.4641 0.457505 32.6429 1.27893C31.7802 2.14195 31.3436 3.29611 31.3644 4.46067C30.2002 4.43987 29.0464 4.87658 28.1837 5.7396C27.3209 6.60262 26.8843 7.75678 26.9051 8.92134C25.7409 8.89015 24.5871 9.33725 23.7244 10.2003C22.8616 11.0633 22.425 12.2175 22.4458 13.382C21.2816 13.3612 20.1278 13.7979 19.2651 14.6609L4.71265 29.2179L0.315736 33.6162C0.191001 33.7306 0.0974494 33.8865 0.0454764 34.0529C0.0454764 34.0737 0.0350818 34.0841 0.0350818 34.1049C-0.0272858 34.344 -0.00649662 34.5832 0.0974494 34.7911C0.118239 34.8431 0.149422 34.8847 0.170212 34.9367C0.305341 35.1343 0.502839 35.2902 0.752309 35.363L4.31766 36.382L5.33633 39.9485C5.42988 40.2916 5.70014 40.5619 6.05355 40.6659L9.6189 41.6849L10.6376 45.2514C10.7103 45.5009 10.8663 45.6985 11.0741 45.8336C11.1157 45.8648 11.1573 45.8856 11.2093 45.9064C11.3444 45.9688 11.4899 46 11.6355 46C11.729 46 11.8226 45.9896 11.9265 45.9584C12.1136 45.9064 12.2695 45.8128 12.3943 45.6777L16.7912 41.2794L23.1007 34.9679C23.2254 35.0927 23.371 35.1759 23.5373 35.2278C23.9011 35.3318 24.2961 35.2382 24.5663 34.9679L32.0816 27.4503C32.487 27.0448 32.487 26.3897 32.0816 25.9842L31.9881 25.8906C32.4247 25.1731 32.6325 24.3517 32.6222 23.5303C33.7863 23.5511 34.9401 23.1144 35.8029 22.2514C36.6656 21.3883 37.1022 20.2342 37.0814 19.0696C38.2456 19.1008 39.3994 18.6537 40.2622 17.7907C41.1249 16.9277 41.5615 15.7735 41.5407 14.609C42.7049 14.6297 43.8587 14.193 44.7215 13.33C45.5426 12.5086 46 11.4064 46 10.2419C45.9688 9.0877 45.5218 7.98553 44.6903 7.1641ZM12.1344 42.9638L11.4484 40.5411C11.3548 40.198 11.0845 39.9277 10.7311 39.8237L7.16578 38.8151L6.14711 35.2486C6.05356 34.9055 5.7833 34.6352 5.42988 34.5312L3.00794 33.8449L5.42988 31.4222L14.5459 40.5411L12.1344 42.9638ZM24.4208 32.1501L21.9781 20.8476C21.8533 20.2862 21.3024 19.9326 20.7411 20.047C20.1798 20.1718 19.8264 20.7229 19.9407 21.2844L22.4043 32.6908L16.022 39.075L6.90591 29.9561L19.9927 16.8653L29.8468 26.7224L24.4208 32.1501ZM43.2246 11.8639C42.5282 12.5606 41.468 12.7373 40.5948 12.2902C40.1998 12.0927 39.7113 12.1655 39.3994 12.4878C39.0876 12.8101 39.0044 13.2884 39.2019 13.6835C39.6385 14.5674 39.4618 15.6279 38.7758 16.3142C38.0897 17.0005 37.0191 17.1876 36.1459 16.7405C35.7509 16.5429 35.2624 16.6157 34.9505 16.9381C34.6387 17.25 34.5555 17.7387 34.753 18.1338C35.1896 19.0176 35.0129 20.0782 34.3269 20.7645C33.6304 21.4611 32.5702 21.6379 31.697 21.1908C31.302 20.9932 30.8135 21.066 30.5017 21.3883C30.1898 21.7003 30.1067 22.189 30.3042 22.5841C30.5744 23.1352 30.616 23.7486 30.4289 24.3101L21.6662 15.5448C22.2276 15.368 22.8408 15.3992 23.3917 15.6695C23.7867 15.8671 24.2753 15.7943 24.5871 15.472C24.899 15.1496 24.9821 14.6713 24.7846 14.2762C24.348 13.3924 24.5248 12.3318 25.2108 11.6456C25.8968 10.9593 26.9675 10.7722 27.8406 11.2193C28.2356 11.4168 28.7242 11.344 29.036 11.0217C29.3479 10.7098 29.431 10.2211 29.2335 9.82595C28.7969 8.94213 28.9736 7.88155 29.6597 7.1953C30.3561 6.49864 31.4164 6.32188 32.2895 6.76899C32.6845 6.96655 33.1731 6.89376 33.4849 6.57143C33.7967 6.25949 33.8799 5.7708 33.6824 5.37568C33.2458 4.49186 33.4225 3.43128 34.1086 2.74503C34.5452 2.30832 35.1169 2.07957 35.7301 2.07957C36.3434 2.07957 36.9151 2.31872 37.3517 2.74503L43.2246 8.6302C43.6612 9.06691 43.8899 9.63879 43.8899 10.2523C43.8899 10.8553 43.6508 11.4376 43.2246 11.8639Z"/>
	</symbol>
  <symbol viewBox="0 0 20 20" id="close">
			<g xmlns="http://www.w3.org/2000/svg" clip-path="url(#clip0)" opacity=".7"><path fill="white" d="M13.5556 10L19.3333 4.22222C20.2222 3.33333 20.2222 2 19.3333 1.22222L18.8889 0.777778C18 -0.111111 16.6667 -0.111111 15.8889 0.777778L10 6.44445L4.22222 0.666667C3.33333 -0.222222 2 -0.222222 1.11111 0.666667L0.666667 1.11111C-0.222222 2 -0.222222 3.33333 0.666667 4.11111L6.44445 10L0.666667 15.7778C-0.222222 16.6667 -0.222222 18 0.666667 18.7778L1.11111 19.3333C2 20.2222 3.33333 20.2222 4.11111 19.3333L10 13.5556L15.7778 19.3333C16.6667 20.2222 18 20.2222 18.7778 19.3333L19.2222 18.8889C20.1111 18 20.1111 16.6667 19.2222 15.8889L13.5556 10Z"/></g><defs xmlns="http://www.w3.org/2000/svg"><clipPath id="clip0"><path fill="white" d="M0 0H20V20H0z"/></clipPath></defs>
	</symbol>

  <symbol viewBox="0 0 52 62" id="marker"> 
    <path d="M26 0C18.348 0 4 5.684 4 21.79 4 37.895 26 54 26 54s22-16.105 22-32.21C48 5.684 33.652 0 26 0z" fill="#0F5A47"></path>
      <path d="M12.417 16.58c0-1.232.383-2.37 1.244-3.222.86-.853 1.913-1.232 3.156-1.232 1.34 0 2.392.38 3.253 1.137l-.574.948c-.287-.284-.67-.474-1.148-.664-.479-.189-.957-.284-1.34-.284-.956 0-1.817.284-2.39.948-.575.663-.861 1.42-.861 2.368 0 .947.286 1.8.86 2.463.574.663 1.435 1.042 2.392 1.042.478 0 .956-.094 1.434-.284.479-.19.861-.474 1.244-.852l.67.852c-.957.947-2.105 1.421-3.348 1.421a4.578 4.578 0 01-3.252-1.326c-.957-.947-1.34-2.084-1.34-3.316zm9.374 4.357v-8.716h1.244v3.79h4.591v-3.79h1.243v8.716h-1.243v-3.79h-4.591v3.79H21.79zm8.8-4.453c0-1.231.383-2.273 1.244-3.126.86-.853 1.913-1.232 3.252-1.232 1.339 0 2.391.38 3.252 1.232.86.853 1.244 1.895 1.244 3.126 0 1.327-.383 2.369-1.244 3.221-.86.853-1.913 1.327-3.252 1.327-1.34 0-2.391-.474-3.252-1.327-.765-.852-1.244-1.894-1.244-3.22zm1.244 0c0 .948.287 1.8.956 2.463.67.664 1.435.948 2.296.948.956 0 1.722-.284 2.296-.947.573-.664.956-1.516.956-2.464 0-.947-.287-1.705-.956-2.368-.574-.663-1.34-.947-2.296-.947-.957 0-1.722.284-2.296.947-.574.663-.956 1.421-.956 2.368zM12.8 27.947c0-1.231.382-2.368 1.243-3.22.861-.853 1.913-1.232 3.157-1.232 1.34 0 2.391.379 3.252 1.136l-.574.948c-.287-.284-.67-.474-1.148-.663-.478-.19-.956-.285-1.339-.285-.956 0-1.817.285-2.391.948-.574.663-.86 1.42-.86 2.368s.286 1.8.86 2.463c.574.664 1.435 1.043 2.391 1.043a3.87 3.87 0 001.435-.285c.478-.19.86-.473 1.244-.852l.67.852c-.957.948-2.105 1.421-3.349 1.421a4.577 4.577 0 01-3.252-1.326c-.957-.947-1.34-2.084-1.34-3.316zm8.704 0c0-1.231.383-2.368 1.244-3.22.86-.853 1.913-1.232 3.156-1.232 1.34 0 2.392.379 3.253 1.136l-.67.948c-.287-.284-.67-.474-1.148-.663-.478-.19-.956-.285-1.339-.285-.956 0-1.817.285-2.391.948-.574.663-.861 1.42-.861 2.368s.287 1.8.86 2.463c.575.664 1.436 1.043 2.392 1.043a3.87 3.87 0 001.435-.285c.478-.19.86-.473 1.243-.852l.67.852c-.957.948-2.104 1.421-3.348 1.421-1.34 0-2.391-.473-3.252-1.326-.861-.947-1.244-2.084-1.244-3.316zm8.705-.095c0-1.231.382-2.273 1.243-3.126.861-.852 1.913-1.231 3.252-1.231 1.34 0 2.392.379 3.252 1.231.861.853 1.244 1.895 1.244 3.127 0 1.326-.383 2.368-1.244 3.22-.86.853-1.913 1.327-3.252 1.327-1.339 0-2.391-.474-3.252-1.326-.86-.853-1.243-1.895-1.243-3.222zm1.243 0c0 .948.287 1.8.957 2.464.67.663 1.434.947 2.295.947.957 0 1.722-.284 2.296-.947.574-.663.956-1.516.956-2.463 0-.948-.287-1.706-.956-2.369-.574-.663-1.34-.947-2.296-.947-.956 0-1.721.284-2.295.947-.67.663-.957 1.421-.957 2.368z" fill="#fff"></path>
  </symbol> 

</svg>
