<svg width="52" height="62" viewBox="0 0 52 62" fill="none" xmlns="http://www.w3.org/2000/svg">
<g filter="url(#filter0_d)">
<path d="M26 0C18.3478 0 4 5.68421 4 21.7895C4 37.8947 26 54 26 54C26 54 48 37.8947 48 21.7895C48 5.68421 33.6522 0 26 0Z" fill="#0F5A47"/>
<path d="M12.4174 16.5791C12.4174 15.3475 12.8 14.2107 13.6608 13.358C14.5217 12.5054 15.5739 12.1265 16.8174 12.1265C18.1565 12.1265 19.2087 12.5054 20.0695 13.2633L19.4956 14.2107C19.2087 13.9265 18.8261 13.737 18.3478 13.5475C17.8695 13.358 17.3913 13.2633 17.0087 13.2633C16.0521 13.2633 15.1913 13.5475 14.6174 14.2107C14.0434 14.8738 13.7565 15.6317 13.7565 16.5791C13.7565 17.5265 14.0434 18.3791 14.6174 19.0423C15.1913 19.7054 16.0521 20.0844 17.0087 20.0844C17.4869 20.0844 17.9652 19.9896 18.4434 19.8002C18.9217 19.6107 19.3043 19.3265 19.6869 18.9475L20.3565 19.8002C19.4 20.7475 18.2521 21.2212 17.0087 21.2212C15.7652 21.2212 14.6174 20.7475 13.7565 19.8949C12.8 18.9475 12.4174 17.8107 12.4174 16.5791Z" fill="white"/>
<path d="M21.7912 20.937V12.2212H23.0347V16.0107H27.626V12.2212H28.8695V20.937H27.626V17.1475H23.0347V20.937H21.7912Z" fill="white"/>
<path d="M30.5912 16.4844C30.5912 15.2528 30.9739 14.2107 31.8347 13.358C32.6956 12.5054 33.7478 12.1265 35.0869 12.1265C36.426 12.1265 37.4782 12.5054 38.3391 13.358C39.1999 14.2107 39.5826 15.2528 39.5826 16.4844C39.5826 17.8107 39.1999 18.8528 38.3391 19.7054C37.4782 20.558 36.426 21.0317 35.0869 21.0317C33.7478 21.0317 32.6956 20.558 31.8347 19.7054C31.0695 18.8528 30.5912 17.8107 30.5912 16.4844ZM31.8347 16.4844C31.8347 17.4317 32.1217 18.2844 32.7912 18.9475C33.4608 19.6107 34.226 19.8949 35.0869 19.8949C36.0434 19.8949 36.8086 19.6107 37.3826 18.9475C37.9565 18.2844 38.3391 17.4317 38.3391 16.4844C38.3391 15.537 38.0521 14.7791 37.3826 14.1159C36.8086 13.4528 36.0434 13.1686 35.0869 13.1686C34.1304 13.1686 33.3652 13.4528 32.7912 14.1159C32.2173 14.7791 31.8347 15.537 31.8347 16.4844Z" fill="white"/>
<path d="M12.7999 27.9473C12.7999 26.7157 13.1825 25.5788 14.0434 24.7262C14.9043 23.8736 15.9564 23.4946 17.1999 23.4946C18.5391 23.4946 19.5912 23.8736 20.4521 24.6315L19.8782 25.5788C19.5912 25.2946 19.2086 25.1052 18.7304 24.9157C18.2521 24.7262 17.7738 24.6315 17.3912 24.6315C16.4347 24.6315 15.5738 24.9157 14.9999 25.5788C14.426 26.242 14.1391 26.9999 14.1391 27.9473C14.1391 28.8946 14.426 29.7473 14.9999 30.4104C15.5738 31.0736 16.4347 31.4525 17.3912 31.4525C17.8695 31.4525 18.3478 31.3578 18.826 31.1683C19.3043 30.9788 19.6869 30.6946 20.0695 30.3157L20.7391 31.1683C19.7825 32.1157 18.6347 32.5894 17.3912 32.5894C16.1478 32.5894 14.9999 32.1157 14.1391 31.2631C13.1825 30.3157 12.7999 29.1788 12.7999 27.9473Z" fill="white"/>
<path d="M21.5043 27.9473C21.5043 26.7157 21.8869 25.5788 22.7478 24.7262C23.6087 23.8736 24.6609 23.4946 25.9043 23.4946C27.2435 23.4946 28.2956 23.8736 29.1565 24.6315L28.4869 25.5788C28.2 25.2946 27.8174 25.1052 27.3391 24.9157C26.8609 24.7262 26.3826 24.6315 26 24.6315C25.0435 24.6315 24.1826 24.9157 23.6087 25.5788C23.0348 26.242 22.7478 26.9999 22.7478 27.9473C22.7478 28.8946 23.0348 29.7473 23.6087 30.4104C24.1826 31.0736 25.0435 31.4525 26 31.4525C26.4782 31.4525 26.9565 31.3578 27.4348 31.1683C27.913 30.9788 28.2956 30.6946 28.6782 30.3157L29.3478 31.1683C28.3913 32.1157 27.2435 32.5894 26 32.5894C24.6609 32.5894 23.6087 32.1157 22.7478 31.2631C21.8869 30.3157 21.5043 29.1788 21.5043 27.9473Z" fill="white"/>
<path d="M30.2087 27.8525C30.2087 26.6209 30.5913 25.5788 31.4522 24.7262C32.313 23.8736 33.3652 23.4946 34.7043 23.4946C36.0435 23.4946 37.0956 23.8736 37.9565 24.7262C38.8174 25.5788 39.2 26.6209 39.2 27.8525C39.2 29.1788 38.8174 30.2209 37.9565 31.0736C37.0956 31.9262 36.0435 32.3999 34.7043 32.3999C33.3652 32.3999 32.313 31.9262 31.4522 31.0736C30.5913 30.2209 30.2087 29.1788 30.2087 27.8525ZM31.4522 27.8525C31.4522 28.7999 31.7391 29.6525 32.4087 30.3157C33.0782 30.9788 33.8435 31.2631 34.7043 31.2631C35.6609 31.2631 36.4261 30.9788 37 30.3157C37.5739 29.6525 37.9565 28.7999 37.9565 27.8525C37.9565 26.9052 37.6695 26.1473 37 25.4841C36.4261 24.8209 35.6609 24.5367 34.7043 24.5367C33.7478 24.5367 32.9826 24.8209 32.4087 25.4841C31.7391 26.1473 31.4522 26.9052 31.4522 27.8525Z" fill="white"/>
</g>
<defs>
<filter id="filter0_d" x="0" y="0" width="52" height="62" filterUnits="userSpaceOnUse" color-interpolation-filters="sRGB">
<feFlood flood-opacity="0" result="BackgroundImageFix"/>
<feColorMatrix in="SourceAlpha" type="matrix" values="0 0 0 0 0 0 0 0 0 0 0 0 0 0 0 0 0 0 127 0"/>
<feOffset dy="4"/>
<feGaussianBlur stdDeviation="2"/>
<feColorMatrix type="matrix" values="0 0 0 0 0 0 0 0 0 0 0 0 0 0 0 0 0 0 0.25 0"/>
<feBlend mode="normal" in2="BackgroundImageFix" result="effect1_dropShadow"/>
<feBlend mode="normal" in="SourceGraphic" in2="effect1_dropShadow" result="shape"/>
</filter>
</defs>
</svg>
